<svg width="24" height="24" viewBox="0 0 24 24" fill="none" xmlns="http://www.w3.org/2000/svg">
<path fill-rule="evenodd" clip-rule="evenodd" d="M9.61328 5.26364C9.61328 4.06676 10.5817 3.09766 11.7783 3.09766C12.9755 3.09766 13.9443 4.06643 13.9443 5.26364C13.9443 6.45884 12.9755 7.42865 11.7783 7.42865C10.5817 7.42865 9.61328 6.45851 9.61328 5.26364ZM11.7783 4.59766C11.4108 4.59766 11.1133 4.89453 11.1133 5.26364C11.1133 5.63077 11.4108 5.92865 11.7783 5.92865C12.1471 5.92865 12.4443 5.63044 12.4443 5.26364C12.4443 4.89485 12.1471 4.59766 11.7783 4.59766Z" fill="#2B2B2B"/>
<path fill-rule="evenodd" clip-rule="evenodd" d="M21.1387 5.24959C21.1391 5.6638 20.8037 5.99994 20.3894 6.00036L13.1935 6.00775C12.7793 6.00818 12.4432 5.67275 12.4427 5.25853C12.4423 4.84431 12.7777 4.50818 13.192 4.50776L20.3879 4.50036C20.802 4.49992 21.1382 4.83538 21.1387 5.24959ZM11.1177 5.26349C11.1182 5.6777 10.7826 6.01382 10.3685 6.01426L3.17257 6.02165C2.75835 6.02208 2.42222 5.68664 2.42179 5.27242C2.42137 4.85821 2.75681 4.52208 3.17103 4.52165L10.367 4.51426C10.7811 4.51382 11.1173 4.84928 11.1177 5.26349Z" fill="#2B2B2B"/>
<path fill-rule="evenodd" clip-rule="evenodd" d="M3.89062 20.1562C3.89062 19.742 4.22641 19.4062 4.64062 19.4062H18.9186C19.3329 19.4062 19.6686 19.742 19.6686 20.1562C19.6686 20.5705 19.3329 20.9062 18.9186 20.9062H4.64062C4.22641 20.9062 3.89062 20.5705 3.89062 20.1562Z" fill="#2B2B2B"/>
<path fill-rule="evenodd" clip-rule="evenodd" d="M11.7787 5.92969C12.193 5.92969 12.5287 6.26547 12.5287 6.67969V16.8067H14.7137C15.128 16.8067 15.4637 17.1425 15.4637 17.5567C15.4637 17.9709 15.128 18.3067 14.7137 18.3067H8.84375C8.42954 18.3067 8.09375 17.9709 8.09375 17.5567C8.09375 17.1425 8.42954 16.8067 8.84375 16.8067H11.0287V6.67969C11.0287 6.26547 11.3645 5.92969 11.7787 5.92969Z" fill="#2B2B2B"/>
<path fill-rule="evenodd" clip-rule="evenodd" d="M5.66528 6C5.95132 5.99934 6.21283 6.16146 6.33948 6.41794L9.03748 11.8819C9.1609 12.1319 9.1355 12.4297 8.97152 12.6552C7.13969 15.1736 3.65175 15.1205 2.33307 12.5571C2.22485 12.3467 2.22223 12.0976 2.326 11.885L4.993 6.42102C5.11847 6.16396 5.37923 6.00065 5.66528 6ZM5.67088 8.45189L3.8552 12.1717C4.63308 13.208 6.28566 13.3975 7.47886 12.1134L5.67088 8.45189Z" fill="#2B2B2B"/>
<path fill-rule="evenodd" clip-rule="evenodd" d="M18.3 6C18.5861 5.99935 18.8476 6.16146 18.9742 6.41794L21.6723 11.8819C21.7957 12.132 21.7703 12.4298 21.6062 12.6553C19.7746 15.1723 16.2867 15.1208 14.9678 12.5571C14.8596 12.3467 14.857 12.0976 14.9608 11.885L17.6278 6.42102C17.7532 6.16396 18.014 6.00066 18.3 6ZM18.3057 8.45185L16.49 12.1717C17.2677 13.2077 18.9203 13.3969 20.1136 12.1133L18.3057 8.45185Z" fill="#2B2B2B"/>
</svg>
