<svg width="24" height="24" viewBox="0 0 24 24" fill="none" xmlns="http://www.w3.org/2000/svg">
<path d="M18.8926 11.9961V9C18.8926 8.70616 18.7934 8.42236 18.6123 8.19336L18.5303 8.09961L14.7383 4.15039C14.4936 3.89535 14.155 3.75005 13.8008 3.75H8.14648C6.51436 3.74377 5.17758 5.04468 5.13867 6.67578V11.9961C5.13867 12.4103 4.80288 12.7461 4.38867 12.7461C3.97445 12.7461 3.63867 12.4103 3.63867 11.9961V6.63965C3.69705 4.19284 5.70201 2.24312 8.14941 2.25098L13.8008 2.25C14.5633 2.25005 15.2934 2.56087 15.8213 3.11133L19.6123 7.06055C20.1129 7.58246 20.3926 8.27699 20.3926 9V11.9961C20.3926 12.4103 20.0568 12.7461 19.6426 12.7461C19.2284 12.7461 18.8926 12.4103 18.8926 11.9961Z" fill="#2B2B2B"/>
<path d="M13.5352 5.95508V3.0625C13.5352 2.64828 13.871 2.3125 14.2852 2.3125C14.6994 2.3125 15.0352 2.64828 15.0352 3.0625V5.95605C15.0346 6.95385 15.8429 7.76454 16.8409 7.7666H19.5791C19.9934 7.7666 20.3291 8.10239 20.3291 8.5166C20.3289 8.93064 19.9932 9.2666 19.5791 9.2666H16.8379C15.0695 9.26294 13.6264 7.87173 13.5391 6.125L13.5352 5.95508Z" fill="#2B2B2B"/>
<path d="M20.8135 11.2461C21.2277 11.2461 21.5635 11.5819 21.5635 11.9961C21.5635 12.4103 21.2277 12.7461 20.8135 12.7461H3.18555C2.77133 12.7461 2.43555 12.4103 2.43555 11.9961C2.43555 11.5819 2.77133 11.2461 3.18555 11.2461H20.8135Z" fill="#2B2B2B"/>
<path d="M3.63183 15.2734C3.63183 14.8592 3.96762 14.5234 4.38183 14.5234C4.79592 14.5235 5.13183 14.8593 5.13183 15.2734V17.1816C5.10003 18.8381 6.41068 20.212 8.07714 20.2519H15.9521C17.6 20.1808 18.9012 18.8163 18.8935 17.1709V15.2734C18.8935 14.8592 19.2293 14.5234 19.6435 14.5234C20.0576 14.5236 20.3935 14.8593 20.3935 15.2734V17.163L20.3887 17.3916C20.2837 19.7408 18.3923 21.6484 16.0166 21.7509C16.006 21.7514 15.995 21.7519 15.9844 21.7519H8.05956C8.05371 21.7519 8.04784 21.7511 8.04199 21.7509C5.55002 21.6915 3.58398 19.6348 3.63183 17.1523V15.2734Z" fill="#2B2B2B"/>
</svg>
