<svg width="24" height="24" viewBox="0 0 24 24" fill="none" xmlns="http://www.w3.org/2000/svg">
<path d="M18.0684 10.1377C18.4172 9.91443 18.8812 10.0164 19.1045 10.3652C19.3277 10.714 19.2258 11.178 18.877 11.4013L13.4258 14.8916C12.5566 15.4483 11.4424 15.4483 10.5732 14.8916L5.12207 11.4013C4.77327 11.178 4.67132 10.714 4.89453 10.3652C5.11784 10.0164 5.58184 9.91445 5.93067 10.1377L11.3818 13.6279C11.7579 13.8687 12.2402 13.8687 12.6162 13.6279L18.0684 10.1377Z" fill="#2B2B2B"/>
<path d="M5.71094 11.3369V5.42578C5.71097 3.70393 7.10629 2.30862 8.82813 2.30859H15.165C16.8357 2.30859 18.1842 3.61968 18.2773 5.25293L18.2822 5.41211V5.41601L18.291 11.3359C18.2914 11.7499 17.9561 12.0863 17.542 12.0869C17.128 12.0874 16.7917 11.7519 16.791 11.3379L16.7822 5.42187C16.776 4.53051 16.0555 3.80859 15.165 3.80859H8.82813C7.93472 3.80862 7.21097 4.53236 7.21094 5.42578V11.3369C7.21077 11.751 6.87505 12.0869 6.46094 12.0869C6.04683 12.0869 5.71111 11.751 5.71094 11.3369Z" fill="#2B2B2B"/>
<path d="M13.1279 8.90136C13.5421 8.90136 13.8778 9.23724 13.8779 9.65136C13.8779 10.0656 13.5421 10.4014 13.1279 10.4014H10.876C10.4618 10.4014 10.126 10.0656 10.126 9.65136C10.1261 9.23724 10.4618 8.90136 10.876 8.90136H13.1279ZM14.3633 5.72656C14.7775 5.72656 15.1133 6.06235 15.1133 6.47656C15.1133 6.89077 14.7775 7.22656 14.3633 7.22656H9.64062C9.22641 7.22656 8.89062 6.89077 8.89062 6.47656C8.89062 6.06235 9.22641 5.72656 9.64062 5.72656H14.3633Z" fill="#2B2B2B"/>
<path d="M2.25 16.0488V10.001C2.25 7.37708 3.77966 5.04617 6.2998 4.48144C6.70395 4.39089 7.10468 4.64472 7.19531 5.04883C7.28586 5.45294 7.03198 5.85366 6.62793 5.94434C4.92738 6.32538 3.75 7.93126 3.75 10.001V16.0488C3.75 18.4307 5.29688 20.1995 7.47461 20.1924H16.5166C18.6962 20.1995 20.25 18.4286 20.25 16.0488V10.001C20.25 7.93455 19.0669 6.32731 17.3545 5.94531C16.9502 5.85515 16.696 5.45406 16.7861 5.0498C16.8763 4.64565 17.2765 4.39054 17.6807 4.48047C20.2084 5.04426 21.75 7.37382 21.75 10.001V16.0488C21.75 19.0799 19.6909 21.7004 16.5146 21.6914L7.47656 21.6924C4.29853 21.7013 2.25 19.0778 2.25 16.0488Z" fill="#2B2B2B"/>
</svg>
