<svg width="24" height="24" viewBox="0 0 24 24" fill="none" xmlns="http://www.w3.org/2000/svg">
<path fill-rule="evenodd" clip-rule="evenodd" d="M4.62204 4.88787C4.05008 5.60583 3.75 6.73334 3.75 8.34113V15.654C3.75 17.184 4.19889 18.3073 4.94074 19.0476C5.68279 19.7882 6.80928 20.2369 8.34452 20.2369H15.6409C17.1718 20.2369 18.2952 19.7885 19.0354 19.0482C19.7756 18.3079 20.2238 17.1845 20.2238 15.654V15.6498L20.25 10.9983V10.9962C20.2497 9.34912 19.9454 8.28669 19.3884 7.63451C18.8544 7.00924 17.9577 6.61367 16.3948 6.61367H13.7415L13.7393 6.61366C12.8316 6.61104 11.9773 6.18401 11.4308 5.45929L11.4301 5.45838L10.5742 4.31972C10.3111 3.96943 9.89928 3.76312 9.46278 3.76312H7.58768C6.06183 3.76312 5.16559 4.20557 4.62204 4.88787ZM3.44883 3.95322C4.36018 2.80924 5.75778 2.26312 7.58768 2.26312H9.46278C10.3727 2.26312 11.2279 2.69241 11.7732 3.41841L12.6285 4.55617C12.8921 4.90538 13.3045 5.1121 13.7427 5.11367H16.3948C18.1955 5.11367 19.6013 5.57404 20.5291 6.6604C21.4336 7.71958 21.75 9.22383 21.75 10.9983V11.0026L21.7238 15.654V15.6563C21.7233 17.4796 21.1829 19.0218 20.0961 20.1088C19.0088 21.1962 17.4658 21.7369 15.6409 21.7369H8.34452C6.51624 21.7369 4.97048 21.1965 3.88114 20.1094C2.79161 19.022 2.25 17.4788 2.25 15.654V8.34113C2.25 6.59804 2.56589 5.06153 3.44883 3.95322Z" fill="#2B2B2B"/>
<path fill-rule="evenodd" clip-rule="evenodd" d="M12.0016 10.1484C12.4158 10.1484 12.7516 10.4842 12.7516 10.8984V12.4454H14.2976C14.7118 12.4454 15.0476 12.7812 15.0476 13.1954C15.0476 13.6097 14.7118 13.9454 14.2976 13.9454H12.7516V15.4929C12.7516 15.9071 12.4158 16.2429 12.0016 16.2429C11.5873 16.2429 11.2516 15.9071 11.2516 15.4929V13.9454H9.70312C9.28891 13.9454 8.95312 13.6097 8.95312 13.1954C8.95312 12.7812 9.28891 12.4454 9.70312 12.4454H11.2516V10.8984C11.2516 10.4842 11.5873 10.1484 12.0016 10.1484Z" fill="#2B2B2B"/>
</svg>
