<svg width="24" height="24" viewBox="0 0 24 24" fill="none" xmlns="http://www.w3.org/2000/svg">
<path d="M13.1955 17.8743H11.9035C11.7045 17.8743 11.5138 17.7953 11.3731 17.6547C11.2325 17.514 11.1535 17.3232 11.1535 17.1243C11.1535 16.9254 11.2325 16.7346 11.3731 16.594C11.5138 16.4533 11.7045 16.3743 11.9035 16.3743H13.1955C13.411 16.391 13.6248 16.3245 13.7928 16.1883C13.9607 16.0522 14.0701 15.8569 14.0984 15.6425C14.1267 15.4282 14.0718 15.2111 13.945 15.036C13.8181 14.861 13.629 14.7412 13.4165 14.7013C12.4305 14.421 11.4105 14.278 10.3855 14.2763C9.0835 14.4164 7.85399 14.9458 6.85746 15.7953L6.40147 16.1043C6.23611 16.2149 6.03359 16.2553 5.83845 16.2166C5.64332 16.1779 5.47158 16.0632 5.36098 15.8978C5.25039 15.7325 5.21001 15.5299 5.24874 15.3348C5.28746 15.1397 5.4021 14.9679 5.56746 14.8573L6.01247 14.5573C7.24291 13.5365 8.75564 12.9155 10.3485 12.7773C11.5087 12.7795 12.6634 12.9375 13.7815 13.2473C14.3503 13.375 14.8511 13.7101 15.1861 14.1873C15.5211 14.6645 15.6661 15.2494 15.5928 15.8278C15.5196 16.4062 15.2334 16.9365 14.79 17.3151C14.3467 17.6937 13.7782 17.8925 13.1955 17.8743Z" fill="#2B2B2B"/>
<path d="M12.7133 21.5743C11.3393 21.5286 9.97317 21.3488 8.63425 21.0373C7.76195 20.8818 6.87591 20.8167 5.99024 20.8433C5.79133 20.8433 5.60058 20.7643 5.45993 20.6237C5.31928 20.483 5.24024 20.2922 5.24024 20.0933C5.24024 19.8944 5.31928 19.7036 5.45993 19.563C5.60058 19.4223 5.79133 19.3433 5.99024 19.3433C6.94922 19.3145 7.90862 19.3845 8.85324 19.5523C11.2452 20.0223 13.2532 20.4203 15.3882 19.5883C16.7861 18.9489 18.0269 18.0109 19.0233 16.8403L19.1992 16.6623C19.3398 16.5214 19.4188 16.3304 19.4188 16.1313C19.4188 15.9322 19.3398 15.7413 19.1992 15.6003C19.0729 15.4737 18.9052 15.397 18.7268 15.3842C18.5484 15.3713 18.3714 15.4232 18.2282 15.5303C18.0012 15.7013 17.7733 15.8893 17.5403 16.0793C16.5678 17.076 15.2859 17.7131 13.9042 17.8863C13.6482 17.8923 13.3843 17.8863 13.1233 17.8723C12.7567 17.8459 12.3885 17.8532 12.0233 17.8943C11.8296 17.9166 11.6348 17.8627 11.4802 17.744C11.3255 17.6253 11.2231 17.4512 11.1945 17.2583C11.1659 17.0655 11.2135 16.8691 11.3271 16.7106C11.4407 16.5522 11.6114 16.4442 11.8033 16.4093C12.2622 16.3548 12.7251 16.3428 13.1862 16.3733C13.4142 16.3833 13.6422 16.3913 13.8712 16.3863C14.9107 16.1975 15.8636 15.6843 16.5932 14.9203C16.8422 14.7203 17.0873 14.5203 17.3303 14.3323C17.7855 13.993 18.3523 13.8385 18.9168 13.8999C19.4813 13.9613 20.0016 14.234 20.3732 14.6633C20.7449 15.0926 20.9403 15.6466 20.9203 16.214C20.9003 16.7815 20.6663 17.3203 20.2653 17.7223L20.0912 17.8963C18.9511 19.2206 17.5318 20.2759 15.9352 20.9863C14.9082 21.3845 13.8148 21.5841 12.7133 21.5743Z" fill="#2B2B2B"/>
<path d="M4.79612 21.7496H3.82812C3.62922 21.7496 3.43845 21.6705 3.2978 21.5299C3.15715 21.3892 3.07812 21.1985 3.07812 20.9996C3.07812 20.8007 3.15715 20.6099 3.2978 20.4692C3.43845 20.3286 3.62922 20.2496 3.82812 20.2496H4.79612C4.90712 20.2496 5.24513 20.2496 5.24513 19.7396V15.4166C5.24513 14.9066 4.90712 14.9066 4.79612 14.9066H3.82812C3.62922 14.9066 3.43845 14.8276 3.2978 14.6869C3.15715 14.5463 3.07812 14.3555 3.07812 14.1566C3.07812 13.9577 3.15715 13.7669 3.2978 13.6262C3.43845 13.4856 3.62922 13.4066 3.82812 13.4066H4.79612C5.05861 13.4017 5.31928 13.4509 5.56198 13.551C5.80468 13.6511 6.02423 13.8 6.20698 13.9885C6.38973 14.1769 6.53183 14.401 6.6244 14.6466C6.71697 14.8923 6.75804 15.1543 6.74513 15.4166V19.7396C6.75804 20.0018 6.71697 20.2638 6.6244 20.5095C6.53183 20.7552 6.38973 20.9792 6.20698 21.1677C6.02423 21.3562 5.80468 21.5051 5.56198 21.6052C5.31928 21.7053 5.05861 21.7544 4.79612 21.7496Z" fill="#2B2B2B"/>
<path d="M19.2235 11.709C19.0246 11.709 18.8338 11.63 18.6932 11.4893C18.5525 11.3487 18.4735 11.1579 18.4735 10.959V8.68701C18.4745 8.37869 18.3554 8.08207 18.1415 7.85999L14.5475 4.117C14.4359 4.00127 14.3022 3.90914 14.1543 3.8461C14.0064 3.78306 13.8473 3.75037 13.6865 3.75H8.31952C7.58943 3.75384 6.88938 4.04109 6.367 4.55115C5.84464 5.06121 5.54078 5.75422 5.51953 6.48401V10.959C5.51953 11.1579 5.44053 11.3487 5.29988 11.4893C5.15921 11.63 4.96844 11.709 4.76953 11.709C4.57062 11.709 4.37986 11.63 4.23921 11.4893C4.09855 11.3487 4.01953 11.1579 4.01953 10.959V6.46701C4.04809 5.34325 4.51285 4.2747 5.31544 3.48761C6.11803 2.70052 7.19542 2.25665 8.31952 2.25H13.6895C14.0524 2.2507 14.4114 2.32437 14.7451 2.46661C15.0789 2.60886 15.3807 2.81677 15.6325 3.078L19.2265 6.82101C19.7089 7.32231 19.9778 7.99132 19.9765 8.68701V10.959C19.9765 11.0578 19.957 11.1555 19.9192 11.2467C19.8813 11.3379 19.8258 11.4207 19.7558 11.4904C19.6858 11.5601 19.6028 11.6153 19.5114 11.6528C19.4201 11.6903 19.3223 11.7094 19.2235 11.709Z" fill="#2B2B2B"/>
<path d="M16.5645 8.9776C15.7238 8.97364 14.9188 8.63723 14.3252 8.04181C13.7317 7.44639 13.3978 6.64032 13.3965 5.79959V3.05859C13.3965 2.85968 13.4755 2.66891 13.6161 2.52826C13.7568 2.38761 13.9476 2.30859 14.1465 2.30859C14.3454 2.30859 14.5362 2.38761 14.6768 2.52826C14.8175 2.66891 14.8965 2.85968 14.8965 3.05859V5.79959C14.897 6.24343 15.0731 6.66903 15.3864 6.98343C15.6997 7.29783 16.1247 7.47549 16.5685 7.4776H19.1685C19.3674 7.4776 19.5582 7.55661 19.6988 7.69727C19.8395 7.83792 19.9185 8.02869 19.9185 8.2276C19.9185 8.42651 19.8395 8.61728 19.6988 8.75793C19.5582 8.89859 19.3674 8.9776 19.1685 8.9776H16.5645Z" fill="#2B2B2B"/>
</svg>
