<svg width="24" height="24" viewBox="0 0 24 24" fill="none" xmlns="http://www.w3.org/2000/svg">
<path d="M21.25 15.1621V8.48535C21.25 7.20289 20.8523 6.17036 20.1963 5.46582C19.5459 4.76736 18.5857 4.33013 17.332 4.33008H9.51074C7.74798 4.33018 6.52608 5.19953 5.95801 6.55078C5.79748 6.93262 5.35743 7.1117 4.97558 6.95117C4.59411 6.79052 4.41488 6.35138 4.57519 5.96973C5.38872 4.03457 7.17426 2.83018 9.51074 2.83008H17.332C18.956 2.83013 20.3298 3.40812 21.2939 4.44336C22.2525 5.47265 22.75 6.8932 22.75 8.48535V15.1621C22.75 16.7542 22.2525 18.1746 21.2939 19.2041C20.3297 20.2396 18.9556 20.8183 17.3311 20.8184H13.8271C13.413 20.8184 13.0773 20.4825 13.0771 20.0684C13.0771 19.6541 13.4129 19.3184 13.8271 19.3184H17.3311C18.5852 19.3183 19.5457 18.8803 20.1963 18.1816C20.8524 17.4768 21.25 16.4444 21.25 15.1621Z" fill="#2B2B2B"/>
<path d="M17.8077 15.9453C18.2217 15.9455 18.5577 16.2812 18.5577 16.6953C18.5577 17.1094 18.2217 17.445 17.8077 17.4453H15.4688C15.0546 17.4453 14.7188 17.1095 14.7188 16.6953C14.7188 16.2811 15.0546 15.9453 15.4688 15.9453H17.8077Z" fill="#2B2B2B"/>
<path d="M9.71484 20.4092C9.71482 19.9132 9.52058 19.349 9.02539 18.9024C8.53124 18.4568 7.66873 18.0684 6.23242 18.0684C4.79829 18.0684 3.93611 18.459 3.44141 18.9073C2.94491 19.3572 2.75004 19.9253 2.75 20.4209C2.75 20.8351 2.41421 21.1709 2 21.1709C1.58579 21.1709 1.25 20.8351 1.25 20.4209C1.25004 19.5351 1.6004 18.5518 2.43457 17.7959C3.27067 17.0383 4.52499 16.5684 6.23242 16.5684C7.93873 16.5684 9.19287 17.0341 10.0293 17.7881C10.8645 18.5412 11.2148 19.5225 11.2148 20.4092C11.2148 20.8234 10.8791 21.1592 10.4648 21.1592C10.0507 21.1591 9.71484 20.8233 9.71484 20.4092Z" fill="#2B2B2B"/>
<path d="M8.18701 12.0566C8.18701 10.9783 7.31199 10.1036 6.23291 10.1035C5.15372 10.1035 4.27881 10.9782 4.27881 12.0566C4.279 13.1353 5.15424 14.0098 6.23291 14.0098C7.31147 14.0096 8.18683 13.1352 8.18701 12.0566ZM9.68701 12.0566C9.68683 13.9636 8.13993 15.5096 6.23291 15.5098C4.32578 15.5098 2.779 13.9637 2.77881 12.0566C2.77881 10.149 4.32606 8.60352 6.23291 8.60352C8.13964 8.60365 9.68701 10.1491 9.68701 12.0566Z" fill="#2B2B2B"/>
</svg>
