<svg width="18" height="18" viewBox="0 0 18 18" fill="none" xmlns="http://www.w3.org/2000/svg">
<path fill-rule="evenodd" clip-rule="evenodd" d="M12.7733 1.85178C12.8256 1.90403 12.8672 1.9661 12.8956 2.03444C12.9239 2.10278 12.9385 2.17604 12.9385 2.25003C12.9385 2.32402 12.9239 2.39728 12.8956 2.46562C12.8672 2.53396 12.8256 2.59603 12.7733 2.64828L6.42038 9.00003L12.7733 15.3518C12.8256 15.4041 12.867 15.4662 12.8953 15.5345C12.9236 15.6028 12.9382 15.6761 12.9382 15.75C12.9382 15.824 12.9236 15.8972 12.8953 15.9656C12.867 16.0339 12.8256 16.096 12.7733 16.1483C12.721 16.2006 12.6589 16.2421 12.5905 16.2704C12.5222 16.2987 12.449 16.3132 12.375 16.3132C12.301 16.3132 12.2278 16.2987 12.1595 16.2704C12.0911 16.2421 12.0291 16.2006 11.9768 16.1483L5.22675 9.39828C5.17437 9.34603 5.13281 9.28395 5.10445 9.21562C5.07609 9.14728 5.06149 9.07402 5.06149 9.00003C5.06149 8.92604 5.07609 8.85278 5.10445 8.78444C5.13281 8.7161 5.17437 8.65403 5.22675 8.60178L11.9768 1.85178C12.029 1.7994 12.0911 1.75783 12.1594 1.72948C12.2278 1.70112 12.301 1.68652 12.375 1.68652C12.449 1.68652 12.5223 1.70112 12.5906 1.72948C12.6589 1.75783 12.721 1.7994 12.7733 1.85178Z" fill="black"/>
</svg>
