<svg width="100" height="100" viewBox="0 0 100 100" fill="none" xmlns="http://www.w3.org/2000/svg">
<path d="M0 50C0 22.3858 22.3858 0 50 0C77.6142 0 100 22.3858 100 50C100 77.6142 77.6142 100 50 100C22.3858 100 0 77.6142 0 50Z" fill="#F4F4F4"/>
<path d="M43.0375 26.6666H32.667C29.3527 26.6666 26.6667 29.3526 26.6667 32.6668V43.0371C26.6667 46.3503 29.3527 49.0373 32.667 49.0373H43.0375C46.3507 49.0373 49.0378 46.3503 49.0378 43.0371V32.6668C49.0378 29.3526 46.3507 26.6666 43.0375 26.6666ZM44.97 41.4199C44.97 43.3804 43.3808 44.9695 41.4203 44.9695H34.2842C32.3226 44.9695 30.7335 43.3804 30.7335 41.4199V34.284C30.7335 32.3224 32.3226 30.7333 34.2842 30.7333H41.4203C43.3808 30.7333 44.97 32.3224 44.97 34.284V41.4199Z" fill="#5BBDB1"/>
<path d="M39.0247 34.6133H36.6798C35.5386 34.6133 34.6135 35.5384 34.6135 36.6796V39.0244C34.6135 40.1655 35.5386 41.0906 36.6798 41.0906H39.0247C40.1659 41.0906 41.091 40.1655 41.091 39.0244V36.6796C41.091 35.5384 40.1659 34.6133 39.0247 34.6133Z" fill="#5BBDB1"/>
<path d="M39.0247 59.1204H36.6798C35.5386 59.1204 34.6135 60.0455 34.6135 61.1867V63.5315C34.6135 64.6727 35.5386 65.5978 36.6798 65.5978H39.0247C40.1659 65.5978 41.091 64.6727 41.091 63.5315V61.1867C41.091 60.0455 40.1659 59.1204 39.0247 59.1204Z" fill="#5BBDB1"/>
<path d="M63.5313 34.6133H61.1864C60.0452 34.6133 59.1201 35.5384 59.1201 36.6796V39.0244C59.1201 40.1655 60.0452 41.0906 61.1864 41.0906H63.5313C64.6725 41.0906 65.5976 40.1655 65.5976 39.0244V36.6796C65.5976 35.5384 64.6725 34.6133 63.5313 34.6133Z" fill="#5BBDB1"/>
<path d="M43.0375 51.1737H32.667C29.3527 51.1737 26.6667 53.8597 26.6667 57.1739V67.5442C26.6667 70.8574 29.3527 73.5444 32.667 73.5444H43.0375C46.3507 73.5444 49.0378 70.8574 49.0378 67.5442V57.1739C49.0378 53.8597 46.3507 51.1737 43.0375 51.1737ZM44.97 65.9259C44.97 67.8864 43.3808 69.4755 41.4203 69.4755H34.2842C32.3226 69.4755 30.7335 67.8864 30.7335 65.9259V58.79C30.7335 56.8285 32.3226 55.2394 34.2842 55.2394H41.4203C43.3808 55.2394 44.97 56.8285 44.97 58.79V65.9259Z" fill="#5BBDB1"/>
<path d="M67.5441 26.6666H57.1736C53.8593 26.6666 51.1733 29.3526 51.1733 32.6668V43.0371C51.1733 46.3503 53.8593 49.0373 57.1736 49.0373H67.5441C70.8573 49.0373 73.5444 46.3503 73.5444 43.0371V32.6668C73.5444 29.3526 70.8573 26.6666 67.5441 26.6666ZM69.4766 41.4199C69.4766 43.3804 67.8874 44.9695 65.9269 44.9695H58.7908C56.8292 44.9695 55.2401 43.3804 55.2401 41.4199V34.284C55.2401 32.3224 56.8292 30.7333 58.7908 30.7333H65.9269C67.8874 30.7333 69.4766 32.3224 69.4766 34.284V41.4199Z" fill="#5BBDB1"/>
<path d="M62.3373 65.4088C64.0216 65.4088 65.3871 64.0434 65.3871 62.3591C65.3871 60.6747 64.0216 59.3093 62.3373 59.3093C60.6529 59.3093 59.2874 60.6747 59.2874 62.3591C59.2874 64.0434 60.6529 65.4088 62.3373 65.4088Z" fill="#5BBDB1"/>
<path d="M55.2185 58.2902C56.9028 58.2902 58.2683 56.9248 58.2683 55.2404C58.2683 53.5561 56.9028 52.1907 55.2185 52.1907C53.5341 52.1907 52.1686 53.5561 52.1686 55.2404C52.1686 56.9248 53.5341 58.2902 55.2185 58.2902Z" fill="#5BBDB1"/>
<path d="M69.455 58.2902C71.1393 58.2902 72.5048 56.9248 72.5048 55.2404C72.5048 53.5561 71.1393 52.1907 69.455 52.1907C67.7706 52.1907 66.4051 53.5561 66.4051 55.2404C66.4051 56.9248 67.7706 58.2902 69.455 58.2902Z" fill="#5BBDB1"/>
<path d="M69.455 72.5253C71.1393 72.5253 72.5048 71.1599 72.5048 69.4755C72.5048 67.7912 71.1393 66.4258 69.455 66.4258C67.7706 66.4258 66.4051 67.7912 66.4051 69.4755C66.4051 71.1599 67.7706 72.5253 69.455 72.5253Z" fill="#5BBDB1"/>
<path d="M55.2185 72.5253C56.9028 72.5253 58.2683 71.1599 58.2683 69.4755C58.2683 67.7912 56.9028 66.4258 55.2185 66.4258C53.5341 66.4258 52.1686 67.7912 52.1686 69.4755C52.1686 71.1599 53.5341 72.5253 55.2185 72.5253Z" fill="#5BBDB1"/>
</svg>
