<svg width="100" height="100" viewBox="0 0 100 100" fill="none" xmlns="http://www.w3.org/2000/svg">
<path d="M85.9496 66.6499C85.6254 66.2593 85.307 65.8687 84.9945 65.4917C80.6976 60.2944 78.098 57.1577 78.098 42.4448C78.098 34.8276 76.2758 28.5776 72.684 23.8901C70.0355 20.4272 66.4555 17.8003 61.7367 15.8589C61.676 15.8251 61.6218 15.7808 61.5766 15.728C59.8793 10.0444 55.2348 6.23779 49.9965 6.23779C44.7582 6.23779 40.1156 10.0444 38.4183 15.7222C38.3731 15.773 38.3196 15.8159 38.2601 15.8491C27.2484 20.3823 21.8969 29.0796 21.8969 42.439C21.8969 57.1577 19.3012 60.2944 15.0004 65.4858C14.6879 65.8628 14.3695 66.2456 14.0453 66.644C13.2078 67.6541 12.6772 68.8828 12.5162 70.185C12.3553 71.4872 12.5707 72.8082 13.1371 73.9917C14.3422 76.5308 16.9105 78.1069 19.8422 78.1069H80.1723C83.0902 78.1069 85.641 76.5327 86.85 74.0054C87.4188 72.8215 87.6363 71.4995 87.4767 70.1958C87.3171 68.8922 86.7872 67.6616 85.9496 66.6499Z" fill="#111111"/>
<path d="M49.9881 93.738C52.8104 93.7358 55.5795 92.9696 58.0017 91.521C60.4239 90.0723 62.4088 87.995 63.7459 85.5095C63.8089 85.3904 63.84 85.257 63.8362 85.1223C63.8324 84.9876 63.7939 84.8562 63.7243 84.7408C63.6547 84.6254 63.5565 84.53 63.4391 84.4638C63.3217 84.3976 63.1892 84.3629 63.0545 84.363H36.9256C36.7907 84.3626 36.6579 84.397 36.5403 84.4631C36.4227 84.5292 36.3242 84.6246 36.2543 84.74C36.1845 84.8554 36.1458 84.987 36.1419 85.1219C36.138 85.2567 36.1692 85.3903 36.2322 85.5095C37.5692 87.9947 39.5538 90.0718 41.9756 91.5205C44.3974 92.9691 47.1661 93.7354 49.9881 93.738Z" fill="#111111"/>
</svg>
