<svg width="100" height="100" viewBox="0 0 100 100" fill="none" xmlns="http://www.w3.org/2000/svg">
<path d="M85.9496 66.6499C85.6254 66.2593 85.307 65.8687 84.9945 65.4917C80.6976 60.2944 78.098 57.1577 78.098 42.4448C78.098 34.8276 76.2758 28.5776 72.684 23.8901C70.0355 20.4272 66.4555 17.8003 61.7367 15.8589C61.676 15.8251 61.6218 15.7808 61.5766 15.728C59.8793 10.0444 55.2348 6.23779 49.9965 6.23779C44.7582 6.23779 40.1156 10.0444 38.4183 15.7222C38.3731 15.773 38.3196 15.8159 38.2601 15.8491C27.2484 20.3823 21.8969 29.0796 21.8969 42.439C21.8969 57.1577 19.3012 60.2944 15.0004 65.4858C14.6879 65.8628 14.3695 66.2456 14.0453 66.644C13.2078 67.6541 12.6772 68.8828 12.5162 70.185C12.3553 71.4872 12.5707 72.8082 13.1371 73.9917C14.3422 76.5308 16.9105 78.1069 19.8422 78.1069H80.1723C83.0902 78.1069 85.641 76.5327 86.85 74.0054C87.4188 72.8215 87.6363 71.4995 87.4767 70.1958C87.3171 68.8922 86.7872 67.6616 85.9496 66.6499Z" fill="#F9F9F9"/>
<path d="M49.9881 93.7383C52.8104 93.736 55.5795 92.9699 58.0017 91.5212C60.4239 90.0725 62.4088 87.9953 63.7459 85.5098C63.8089 85.3907 63.84 85.2573 63.8362 85.1226C63.8324 84.9879 63.7939 84.8565 63.7243 84.7411C63.6547 84.6257 63.5565 84.5303 63.4391 84.4641C63.3217 84.3979 63.1892 84.3632 63.0545 84.3633H36.9256C36.7907 84.3628 36.6579 84.3973 36.5403 84.4633C36.4227 84.5294 36.3242 84.6248 36.2543 84.7402C36.1845 84.8557 36.1458 84.9872 36.1419 85.1221C36.138 85.257 36.1692 85.3905 36.2322 85.5098C37.5692 87.995 39.5538 90.072 41.9756 91.5207C44.3974 92.9694 47.1661 93.7357 49.9881 93.7383Z" fill="#F9F9F9"/>
</svg>
