<svg width="8" height="10" viewBox="0 0 8 10" fill="none" xmlns="http://www.w3.org/2000/svg">
<path d="M5.37121 6.16768C5.52758 6.16768 5.65433 6.30646 5.65433 6.47765C5.65433 6.64883 5.52758 6.78761 5.37121 6.78761H2.64583C2.48947 6.78761 2.36271 6.64883 2.36271 6.47765C2.36271 6.30646 2.48947 6.16768 2.64583 6.16768H5.37121Z" fill="#111111"/>
<path d="M5.37121 4.43746C5.52758 4.43746 5.65433 4.57624 5.65433 4.74743C5.65433 4.91862 5.52758 5.05739 5.37121 5.05739H2.64583C2.48947 5.05739 2.36271 4.91862 2.36271 4.74743C2.36271 4.57624 2.48947 4.43746 2.64583 4.43746H5.37121Z" fill="#111111"/>
<path d="M3.68577 2.71126C3.84214 2.71126 3.96889 2.85003 3.96889 3.02122C3.96889 3.19241 3.84214 3.33119 3.68577 3.33119H2.64583C2.48947 3.33119 2.36271 3.19241 2.36271 3.02122C2.36271 2.85003 2.48947 2.71126 2.64583 2.71126H3.68577Z" fill="#111111"/>
<path d="M6.8622 6.61367V2.81339C6.8622 2.30222 6.7187 1.90894 6.48544 1.64537C6.25326 1.38302 5.90587 1.21919 5.44402 1.21917H5.31942C5.2402 1.21922 5.12707 1.2195 4.99133 1.21957C4.71957 1.21973 4.35705 1.21977 3.99452 1.21998C3.28675 1.22038 2.57822 1.22036 2.5428 1.22038L2.54316 1.22079C2.08584 1.22387 1.74162 1.38833 1.51133 1.65021C1.27999 1.91337 1.13753 2.30494 1.13753 2.81339V6.61367C1.13753 7.12488 1.28111 7.51813 1.51428 7.78169C1.74636 8.04395 2.09354 8.20787 2.55533 8.20789H2.55607C2.56436 8.20791 2.57266 8.20831 2.58077 8.2091C2.579 8.20891 2.5773 8.20878 2.57634 8.20869C2.57189 8.20832 2.5683 8.20835 2.56713 8.20829C2.5644 8.20816 2.56227 8.2079 2.5616 8.20789H2.58003C2.61183 8.20785 2.68207 8.20755 2.83587 8.20748C2.99222 8.20742 3.11892 8.34627 3.11899 8.51745C3.11904 8.68861 2.99256 8.8273 2.83624 8.82741C2.68262 8.82747 2.61244 8.82778 2.58077 8.82781H2.5627C2.56306 8.8278 2.56721 8.82735 2.57229 8.82701C2.57389 8.82689 2.57753 8.8268 2.57966 8.8266C2.58008 8.82656 2.58056 8.82627 2.58114 8.8262C2.57265 8.82704 2.56402 8.82781 2.55533 8.82781L2.55459 8.82741L2.54796 8.82781C2.54745 8.8278 2.54625 8.82747 2.54464 8.82741C1.96021 8.82484 1.4608 8.6123 1.1073 8.21273C0.752804 7.81194 0.571289 7.25296 0.571289 6.61367V2.81339C0.571289 2.17703 0.751546 1.62045 1.10324 1.22038C1.45599 0.819144 1.95539 0.604799 2.53985 0.600858H2.6674C2.74705 0.600812 2.86054 0.600531 2.9966 0.600454C3.2689 0.600299 3.63164 0.600257 3.99415 0.60005C4.35668 0.599844 4.7192 0.599802 4.99096 0.599647C5.12682 0.599569 5.24018 0.599288 5.31942 0.599243H5.44402C6.03301 0.599261 6.53632 0.811998 6.89206 1.21392C7.24674 1.61471 7.42843 2.17396 7.42843 2.81339V6.61367C7.42843 7.24999 7.24816 7.80655 6.89648 8.20668C6.54366 8.60801 6.04402 8.82266 5.45951 8.8266H5.08312C4.85039 8.82672 4.52588 8.82686 4.15746 8.82701C4.00115 8.82707 3.87411 8.68856 3.87397 8.51745C3.87391 8.34629 4.00076 8.20719 4.15709 8.20708C4.87172 8.2068 5.42151 8.20669 5.45619 8.20668L5.54061 8.20425C5.95614 8.18268 6.27238 8.02255 6.48839 7.77684C6.71982 7.51356 6.8622 7.12203 6.8622 6.61367ZM2.58961 8.82499C2.59256 8.82459 2.59566 8.82456 2.59809 8.82418C2.59865 8.82407 2.59922 8.82355 2.59994 8.82337C2.59651 8.82397 2.59308 8.82453 2.58961 8.82499ZM2.70242 8.7814C2.70335 8.78088 2.70445 8.78071 2.70537 8.78019V8.77938C2.70438 8.78006 2.70341 8.78074 2.70242 8.7814ZM2.64122 8.22363C2.63994 8.22282 2.63879 8.22185 2.63754 8.22121C2.6336 8.22004 2.62906 8.21911 2.62463 8.21798C2.63029 8.21954 2.63571 8.2217 2.64122 8.22363Z" fill="#111111"/>
</svg>
