<svg width="20" height="20" viewBox="0 0 20 20" fill="none" xmlns="http://www.w3.org/2000/svg">
<path fill-rule="evenodd" clip-rule="evenodd" d="M3.11609 3.24978C3.93589 2.36963 5.10337 1.87671 6.48165 1.87671H13.5136C14.8963 1.87671 16.0652 2.36915 16.8842 3.25028C17.6982 4.12623 18.1196 5.33515 18.1153 6.69114V13.3094C18.1153 14.6651 17.6933 15.8737 16.8792 16.7495C16.0603 17.6305 14.8923 18.1228 13.5087 18.1228H6.48165C5.10057 18.1228 3.93278 17.6303 3.11343 16.7498C2.2988 15.8743 1.875 14.6657 1.875 13.3094V6.69006C1.875 5.33347 2.30086 4.12502 3.11609 3.24978ZM4.03077 4.10174C3.46677 4.70726 3.125 5.59298 3.125 6.69006V13.3094C3.125 14.4076 3.46559 15.2932 4.02857 15.8983C4.58682 16.4983 5.40986 16.8728 6.48165 16.8728H13.5087C14.5837 16.8728 15.4064 16.498 15.9637 15.8985C16.5258 15.2938 16.8653 14.4082 16.8653 13.3094V6.68799C16.869 5.59071 16.5304 4.70583 15.9685 4.10124C15.4113 3.50161 14.5877 3.12671 13.5136 3.12671H6.48165C5.41355 3.12671 4.5902 3.50113 4.03077 4.10174Z" fill="#2B2B2B"/>
<path fill-rule="evenodd" clip-rule="evenodd" d="M7.46355 6.53058C6.98074 6.53058 6.58895 6.9223 6.58895 7.40599C6.58895 7.88968 6.98074 8.2814 7.46355 8.2814C7.9468 8.2814 8.339 7.88924 8.339 7.40599V7.40464C8.33833 6.92198 7.94679 6.53058 7.46355 6.53058ZM5.33895 7.40599C5.33895 6.23283 6.28951 5.28058 7.46355 5.28058C8.63708 5.28058 9.58783 6.23133 9.589 7.40376V7.40599C9.589 8.57958 8.63717 9.53142 7.46355 9.53142C6.28951 9.53142 5.33895 8.57917 5.33895 7.40599Z" fill="#2B2B2B"/>
<path fill-rule="evenodd" clip-rule="evenodd" d="M12.2298 10.1765C12.6043 9.80925 13.1051 9.46025 13.7387 9.46025C14.7233 9.46025 15.6099 9.9445 16.3007 10.4609C16.9403 10.9392 17.4847 11.5019 17.852 11.8816C17.8856 11.9163 17.9177 11.9495 17.9482 11.9809C18.1887 12.2285 18.1831 12.6242 17.9355 12.8647C17.6879 13.1053 17.2922 13.0996 17.0517 12.852C17.0213 12.8208 16.9902 12.7887 16.9582 12.7557C16.5854 12.3707 16.1074 11.8772 15.5522 11.462C14.9418 11.0057 14.3227 10.7102 13.7387 10.7102C13.5887 10.7102 13.3882 10.7913 13.105 11.069C12.8233 11.3453 12.5484 11.7264 12.2353 12.1673C12.2247 12.1822 12.2141 12.1971 12.2034 12.2122C11.9153 12.618 11.5908 13.0751 11.2378 13.4291C10.8755 13.7926 10.384 14.1504 9.75717 14.1504C9.27567 14.1504 8.82858 14.0266 8.43925 13.8856C8.24352 13.8147 8.05348 13.7359 7.87744 13.662C7.85003 13.6505 7.82305 13.6392 7.79644 13.6279C7.64782 13.5653 7.51072 13.5077 7.37496 13.4551C6.73016 13.2054 6.39674 13.1873 6.08484 13.4358C5.2059 14.2783 4.45634 15.2457 3.85819 16.307C3.68872 16.6077 3.30756 16.7141 3.00685 16.5446C2.70614 16.3752 2.59975 15.994 2.76923 15.6933C3.43161 14.518 4.26315 13.4468 5.23932 12.5148C5.25005 12.5046 5.26113 12.4948 5.27256 12.4852C6.16148 11.75 7.11702 12.0148 7.82633 12.2894C7.98054 12.3492 8.13682 12.4149 8.28481 12.4773C8.31065 12.4882 8.33625 12.4989 8.3615 12.5096C8.536 12.5828 8.70108 12.6509 8.865 12.7102C9.19483 12.8298 9.48475 12.9004 9.75717 12.9004C9.88458 12.9004 10.0719 12.8282 10.3526 12.5466C10.6296 12.2688 10.9013 11.8868 11.2163 11.4433L11.2195 11.4388C11.5165 11.0206 11.8551 10.5439 12.2298 10.1765Z" fill="#2B2B2B"/>
</svg>
