<svg width="16" height="16" viewBox="0 0 16 16" fill="none" xmlns="http://www.w3.org/2000/svg">
<path d="M13.0865 2.43338C13.0091 2.37072 12.9185 2.32623 12.8216 2.30315C12.7247 2.28008 12.6239 2.27902 12.5265 2.30004C11.8141 2.44934 11.0787 2.45124 10.3656 2.30563C9.65246 2.16002 8.97667 1.86999 8.37984 1.45338C8.26824 1.37596 8.13566 1.33447 7.99984 1.33447C7.86402 1.33447 7.73144 1.37596 7.61984 1.45338C7.02301 1.86999 6.34722 2.16002 5.63409 2.30563C4.92095 2.45124 4.18555 2.44934 3.47317 2.30004C3.3758 2.27902 3.27495 2.28008 3.17804 2.30315C3.08113 2.32623 2.99062 2.37072 2.91317 2.43338C2.83583 2.49612 2.77352 2.5754 2.73084 2.66539C2.68815 2.75537 2.66617 2.85378 2.66651 2.95338V7.92004C2.66592 8.87588 2.89369 9.81802 3.33086 10.668C3.76804 11.518 4.40196 12.2513 5.17984 12.8067L7.61317 14.54C7.72608 14.6204 7.86124 14.6636 7.99984 14.6636C8.13844 14.6636 8.2736 14.6204 8.38651 14.54L10.8198 12.8067C11.5977 12.2513 12.2316 11.518 12.6688 10.668C13.106 9.81802 13.3338 8.87588 13.3332 7.92004V2.95338C13.3335 2.85378 13.3115 2.75537 13.2688 2.66539C13.2262 2.5754 13.1639 2.49612 13.0865 2.43338ZM11.9998 7.92004C12.0004 8.66321 11.8234 9.39576 11.4836 10.0567C11.1439 10.7177 10.6511 11.2879 10.0465 11.72L7.99984 13.18L5.95317 11.72C5.34853 11.2879 4.85583 10.7177 4.51607 10.0567C4.17632 9.39576 3.99933 8.66321 3.99984 7.92004V3.72004C5.39746 3.83966 6.7972 3.51539 7.99984 2.79338C9.20248 3.51539 10.6022 3.83966 11.9998 3.72004V7.92004ZM9.02651 6.39338L7.23317 8.19338L6.63984 7.59338C6.51431 7.46784 6.34404 7.39732 6.16651 7.39732C5.98897 7.39732 5.81871 7.46784 5.69317 7.59338C5.56764 7.71891 5.49711 7.88918 5.49711 8.06671C5.49711 8.24424 5.56764 8.41451 5.69317 8.54004L6.75984 9.60671C6.82182 9.6692 6.89555 9.71879 6.97679 9.75264C7.05803 9.78648 7.14517 9.80391 7.23317 9.80391C7.32118 9.80391 7.40832 9.78648 7.48956 9.75264C7.5708 9.71879 7.64453 9.6692 7.70651 9.60671L9.99984 7.33338C10.1254 7.20784 10.1959 7.03758 10.1959 6.86004C10.1959 6.68251 10.1254 6.51225 9.99984 6.38671C9.8743 6.26117 9.70404 6.19065 9.52651 6.19065C9.34897 6.19065 9.17871 6.26117 9.05317 6.38671L9.02651 6.39338Z" fill="#319B8F"/>
</svg>
