<svg width="11" height="11" viewBox="0 0 11 11" fill="none" xmlns="http://www.w3.org/2000/svg">
<path d="M10.2149 4.80711C10.5467 4.80711 10.8158 5.07614 10.8158 5.408C10.8158 5.73986 10.5467 6.00888 10.2149 6.00888L0.600755 6.00884C0.268896 6.00884 -0.000128684 5.73982 -0.000129853 5.40796C-0.00013102 5.0761 0.268892 4.80708 0.60075 4.80708L10.2149 4.80711Z" fill="#F7F7F7"/>
<path d="M4.80699 10.215L4.80695 0.600879C4.80695 0.269021 5.07597 -2.32977e-06 5.40783 -1.11015e-06C5.73969 -2.25064e-07 6.00871 0.269025 6.00872 0.600883L6.00875 10.215C6.00875 10.5469 5.73973 10.8159 5.40787 10.8159C5.07601 10.8159 4.80699 10.5469 4.80699 10.215Z" fill="#F7F7F7"/>
</svg>
