<svg width="20" height="20" viewBox="0 0 20 20" fill="none" xmlns="http://www.w3.org/2000/svg">
<path d="M10.4675 3.54985C12.3015 3.43116 13.9405 4.71274 14.1793 6.50232L14.198 6.67811V6.67973C14.2014 6.72403 14.2022 6.87047 14.2029 7.02479C14.2036 7.20321 14.204 7.4516 14.2045 7.74581C14.2054 8.33454 14.2059 9.10893 14.2061 9.8796V12.9485C14.274 14.8308 12.7554 16.3773 10.8549 16.4551C10.7646 16.4583 9.29178 16.4573 7.87636 16.4551C7.15657 16.454 6.43986 16.4521 5.9037 16.4511C5.63579 16.4506 5.41273 16.4505 5.25673 16.4502C5.17895 16.4501 5.11782 16.4495 5.07606 16.4494C5.05518 16.4494 5.03884 16.4494 5.02805 16.4494C3.1413 16.5759 1.45695 15.2147 1.30328 13.3399L1.30409 13.3391C1.30034 13.2916 1.2991 13.1441 1.2984 12.9916C1.29756 12.8127 1.29731 12.5636 1.29677 12.2689C1.29569 11.6792 1.29459 10.9034 1.29433 10.1319V7.05978C1.22431 5.17791 2.73847 3.62899 4.63824 3.5466C4.72156 3.54274 6.20156 3.54386 7.61838 3.54578C8.33733 3.54676 9.05312 3.54731 9.5886 3.54822C9.85617 3.54868 10.079 3.54957 10.2348 3.54985H10.4675ZM10.5245 4.79822C10.5088 4.79939 10.493 4.79988 10.4773 4.79985H10.2323C10.0765 4.79957 9.85377 4.79868 9.58616 4.79822C9.05077 4.79731 8.33551 4.79676 7.61675 4.79578C6.89815 4.79481 6.17605 4.79353 5.62619 4.79334C5.35134 4.79324 5.11953 4.7939 4.95318 4.79415C4.7721 4.79443 4.69397 4.79437 4.69846 4.79415L4.69439 4.79497C3.42985 4.84875 2.49138 5.87088 2.54433 7.0313V10.1319C2.54459 10.9032 2.54569 11.6778 2.54677 12.2665C2.54731 12.5609 2.54757 12.8087 2.5484 12.9859L2.54921 13.2374C2.64392 14.3937 3.70638 15.2973 4.96539 15.2019L5.01422 15.1994H5.07851C5.12024 15.1995 5.18138 15.2001 5.25917 15.2002C5.41516 15.2005 5.63823 15.2006 5.90614 15.2011C6.4422 15.2021 7.15841 15.204 7.87798 15.2051C8.59747 15.2063 9.32058 15.2072 9.87099 15.2076C10.1462 15.2078 10.3783 15.2077 10.5448 15.2076C10.7216 15.2074 10.8027 15.2067 10.8028 15.2068C12.0671 15.155 13.0081 14.1347 12.9569 12.9761C12.9565 12.9669 12.9561 12.9577 12.9561 12.9485V9.8796C12.9559 9.10914 12.9554 8.33521 12.9545 7.74744C12.954 7.45358 12.9536 7.20638 12.9529 7.02967C12.9522 6.87058 12.9518 6.79455 12.952 6.7782L12.9236 6.56336C12.7246 5.50444 11.7117 4.70976 10.5245 4.79822Z" fill="#2B2B2B"/>
<path d="M15.9322 5.58675C16.9869 4.7238 18.5514 5.42588 18.647 6.74723L18.6519 6.87744L18.6421 13.0021C18.6402 14.4081 17.0053 15.1752 15.9208 14.2855L13.1864 12.0394C12.9199 11.8202 12.8819 11.4263 13.101 11.1597C13.3201 10.8932 13.714 10.8543 13.9807 11.0734L16.7134 13.3195L16.7655 13.3561C17.0341 13.5176 17.3915 13.327 17.3921 13.0005L17.4019 6.87581L17.397 6.81234C17.3517 6.50307 16.9783 6.34644 16.724 6.55436L13.979 8.80046C13.712 9.01871 13.3187 8.97936 13.1001 8.71257C12.8815 8.44544 12.9209 8.05146 13.188 7.83285L15.9322 5.58675Z" fill="#2B2B2B"/>
</svg>
