<svg width="26" height="26" viewBox="0 0 26 26" fill="none" xmlns="http://www.w3.org/2000/svg">
<path d="M6.63636 6.63636H8.45455V8.45455H6.63636V6.63636ZM3 3H12.0909V12.0909H3V3ZM4.81818 4.81818V10.2727H10.2727V4.81818H4.81818ZM6.63636 17.5455H8.45455V19.3636H6.63636V17.5455ZM3 13.9091H12.0909V23H3V13.9091ZM4.81818 15.7273V21.1818H10.2727V15.7273H4.81818ZM13.9091 13.9091H17.5455V15.7273H19.3636V13.9091H23V15.7273H19.3636V17.5455H23V23H19.3636V21.1818H15.7273V23H13.9091V21.1818H15.7273V19.3636H13.9091V13.9091ZM21.1818 21.1818V19.3636H19.3636V21.1818H21.1818ZM19.3636 17.5455H17.5455V15.7273H15.7273V19.3636H19.3636V17.5455ZM22.7273 5.13636L21.8182 6.04545L19.9545 4.22727L20.8636 3.31818C21.0455 3.12727 21.3545 3.11818 21.5636 3.31818L22.7273 4.43636C22.9182 4.61818 22.9273 4.92727 22.7273 5.13636ZM13.9091 10.2182L19.4273 4.70909L21.2909 6.57273L15.7818 12.0909H13.9091V10.2182Z" fill="#5BBDB1"/>
</svg>
