<svg width="26" height="26" viewBox="0 0 26 26" fill="none" xmlns="http://www.w3.org/2000/svg">
<path d="M21.2658 3.95418C21.14 3.85237 20.9929 3.78005 20.8354 3.74256C20.6779 3.70507 20.5141 3.70334 20.3558 3.73751C19.1982 3.98011 18.0032 3.98321 16.8443 3.74659C15.6855 3.50998 14.5873 3.03867 13.6175 2.36168C13.4361 2.23587 13.2207 2.16846 13 2.16846C12.7793 2.16846 12.5638 2.23587 12.3825 2.36168C11.4126 3.03867 10.3145 3.50998 9.15563 3.74659C7.99678 3.98321 6.80176 3.98011 5.64415 3.73751C5.48592 3.70334 5.32204 3.70507 5.16456 3.74256C5.00708 3.78005 4.86001 3.85237 4.73415 3.95418C4.60846 4.05614 4.50722 4.18496 4.43785 4.33119C4.36849 4.47742 4.33277 4.63733 4.33332 4.79918V12.87C4.33236 14.4232 4.70249 15.9542 5.4129 17.3355C6.12331 18.7167 7.15343 19.9082 8.41749 20.8108L12.3717 23.6275C12.5551 23.7581 12.7748 23.8283 13 23.8283C13.2252 23.8283 13.4448 23.7581 13.6283 23.6275L17.5825 20.8108C18.8465 19.9082 19.8767 18.7167 20.5871 17.3355C21.2975 15.9542 21.6676 14.4232 21.6667 12.87V4.79918C21.6672 4.63733 21.6315 4.47742 21.5621 4.33119C21.4928 4.18496 21.3915 4.05614 21.2658 3.95418ZM19.5 12.87C19.5008 14.0777 19.2132 15.2681 18.6611 16.3421C18.109 17.4162 17.3084 18.3428 16.3258 19.045L13 21.4175L9.67415 19.045C8.69161 18.3428 7.89097 17.4162 7.33886 16.3421C6.78676 15.2681 6.49916 14.0777 6.49999 12.87V6.04501C8.77112 6.23939 11.0457 5.71245 13 4.53918C14.9543 5.71245 17.2289 6.23939 19.5 6.04501V12.87ZM14.6683 10.3892L11.7542 13.3142L10.79 12.3392C10.586 12.1352 10.3093 12.0206 10.0208 12.0206C9.73233 12.0206 9.45565 12.1352 9.25165 12.3392C9.04766 12.5432 8.93305 12.8198 8.93305 13.1083C8.93305 13.3968 9.04766 13.6735 9.25165 13.8775L10.985 15.6108C11.0857 15.7124 11.2055 15.793 11.3375 15.848C11.4695 15.903 11.6111 15.9313 11.7542 15.9313C11.8972 15.9313 12.0388 15.903 12.1708 15.848C12.3028 15.793 12.4226 15.7124 12.5233 15.6108L16.25 11.9167C16.454 11.7127 16.5686 11.436 16.5686 11.1475C16.5686 10.859 16.454 10.5823 16.25 10.3783C16.046 10.1743 15.7693 10.0597 15.4808 10.0597C15.1923 10.0597 14.9156 10.1743 14.7117 10.3783L14.6683 10.3892Z" fill="#5BBDB1"/>
</svg>
