<svg width="21" height="23" viewBox="0 0 21 23" fill="none" xmlns="http://www.w3.org/2000/svg">
<path d="M18.806 12.5406C18.8059 11.9948 18.3616 11.5522 17.8136 11.5521H3.18636C2.63836 11.5522 2.19414 11.9948 2.19403 12.5406V19.826C2.19403 20.3719 2.63829 20.8144 3.18636 20.8145H17.8136C18.3617 20.8144 18.806 20.3719 18.806 19.826V12.5406ZM14.6267 6.29623C14.6266 5.20603 14.1921 4.16019 13.4182 3.38929C12.6443 2.61841 11.5945 2.18554 10.5 2.18554C9.40553 2.18554 8.3557 2.61841 7.58177 3.38929C6.80788 4.16019 6.37339 5.20603 6.37334 6.29623V9.3666H14.6267V6.29623ZM16.8207 9.3666H17.8136C19.5734 9.36671 20.9999 10.7877 21 12.5406V19.826C21 21.579 19.5734 22.9999 17.8136 23H3.18636C1.42656 22.9999 6.46154e-07 21.579 0 19.826V12.5406C0.000110488 10.7877 1.42663 9.36671 3.18636 9.3666H4.17931V6.29623C4.17936 4.62639 4.84517 3.02481 6.03052 1.84405C7.21591 0.663302 8.82364 0 10.5 0C12.1764 0 13.7841 0.663302 14.9695 1.84405C16.1548 3.02481 16.8206 4.62639 16.8207 6.29623V9.3666Z" fill="#5BBDB1"/>
</svg>
