<?xml version="1.0" encoding="UTF-8"?>
<svg id="Layer_1" xmlns="http://www.w3.org/2000/svg" version="1.1" viewBox="0 0 500 500">
  <!-- Generator: Adobe Illustrator 30.2.1, SVG Export Plug-In . SVG Version: 2.1.1 Build 1)  -->
  <rect width="500" height="500" style="fill: #5bbdb1; stroke: #231f20; stroke-miterlimit: 10;"/>
  <g>
    <g id="Outline_BL">
      <path d="M324.24,111.44" style="fill: #fff; stroke: #545453; stroke-linecap: round; stroke-linejoin: round; stroke-width: 13px;"/>
    </g>
    <path d="M226.96,240.66h-104.76c-7.57,0-13.7-6.13-13.7-13.7v-104.76c0-7.57,6.13-13.7,13.7-13.7h104.76c7.57,0,13.7,6.13,13.7,13.7v104.76c0,7.57-6.13,13.7-13.7,13.7ZM142.11,216.63h64.93c5.29,0,9.58-4.29,9.58-9.58v-64.93c0-5.29-4.29-9.58-9.58-9.58h-64.93c-5.29,0-9.58,4.29-9.58,9.58v64.93c0,5.29,4.29,9.58,9.58,9.58Z" style="fill: #fff;"/>
    <path d="M226.68,391.51h-104.2c-7.72,0-13.98-6.26-13.98-13.98v-104.2c0-7.72,6.26-13.98,13.98-13.98h104.2c7.72,0,13.98,6.26,13.98,13.98v104.2c0,7.72-6.26,13.98-13.98,13.98ZM142.07,367.48h65.01c5.27,0,9.55-4.27,9.55-9.55v-65.01c0-5.27-4.27-9.55-9.55-9.55h-65.01c-5.27,0-9.55,4.27-9.55,9.55v65.01c0,5.27,4.27,9.55,9.55,9.55Z" style="fill: #fff;"/>
    <path d="M377.79,240.66h-104.73c-7.58,0-13.72-6.14-13.72-13.72v-104.73c0-7.58,6.14-13.72,13.72-13.72h104.73c7.58,0,13.72,6.14,13.72,13.72v104.73c0,7.58-6.14,13.72-13.72,13.72ZM293.26,216.63h64.33c5.46,0,9.89-4.43,9.89-9.89v-64.33c0-5.46-4.43-9.89-9.89-9.89h-64.33c-5.46,0-9.89,4.43-9.89,9.89v64.33c0,5.46,4.43,9.89,9.89,9.89Z" style="fill: #fff;"/>
    <path d="M183.5,192.6h-20.51c-5.03,0-9.1-4.07-9.1-9.1v-17.85c0-5.03,4.07-9.1,9.1-9.1h20.51c5.03,0,9.1,4.07,9.1,9.1v17.85c0,5.03-4.07,9.1-9.1,9.1Z" style="fill: #fff;"/>
    <rect x="153.88" y="306.07" width="38.71" height="36.04" rx="9.17" ry="9.17" style="fill: #fff;"/>
    <rect x="304.73" y="306.07" width="38.71" height="36.04" rx="9.20" ry="9.20" style="fill: #fff;"/>
    <rect x="352.79" y="259.34" width="38.71" height="36.04" rx="9.29" ry="9.29" style="fill: #fff;"/>
    <rect x="259.34" y="259.34" width="38.71" height="36.04" rx="9.28" ry="9.28" style="fill: #fff;"/>
    <rect x="259.34" y="355.46" width="38.71" height="36.04" rx="9.33" ry="9.33" style="fill: #fff;"/>
    <rect x="352.79" y="355.46" width="38.71" height="36.04" rx="9.27" ry="9.27" style="fill: #fff;"/>
    <path d="M335.66,192.6h-20.47c-5.04,0-9.12-4.08-9.12-9.12v-17.8c0-5.04,4.08-9.12,9.12-9.12h20.47c5.04,0,9.12,4.08,9.12,9.12v17.8c0,5.04-4.08,9.12-9.12,9.12Z" style="fill: #fff;"/>
  </g>
</svg>