<?xml version="1.0" encoding="UTF-8"?>
<svg id="Layer_1" xmlns="http://www.w3.org/2000/svg" version="1.1" viewBox="0 0 500 500">
  <path fill="#5bbdb1" d="M184.98,33.09h-96.06c-30.7,0-55.58,24.88-55.58,55.58v96.06c0,30.69,24.88,55.58,55.58,55.58h96.06c30.69,0,55.58-24.89,55.58-55.58v-96.06c0-30.7-24.89-55.58-55.58-55.58ZM202.88,169.75c0,18.16-14.72,32.88-32.88,32.88h-66.1c-18.17,0-32.89-14.72-32.89-32.88v-66.1c0-18.17,14.72-32.89,32.89-32.89h66.1c18.16,0,32.88,14.72,32.88,32.89v66.1Z"/>
  <rect fill="#5bbdb1" x="106.95" y="106.7" width="60" height="60" rx="19.14" ry="19.14"/>
  <rect fill="#5bbdb1" x="106.95" y="333.71" width="60" height="60" rx="19.14" ry="19.14"/>
  <rect fill="#5bbdb1" x="333.95" y="106.7" width="60" height="60" rx="19.14" ry="19.14"/>
  <path fill="#5bbdb1" d="M184.98,260.1h-96.06c-30.7,0-55.58,24.88-55.58,55.58v96.06c0,30.69,24.88,55.58,55.58,55.58h96.06c30.69,0,55.58-24.89,55.58-55.58v-96.06c0-30.7-24.89-55.58-55.58-55.58ZM202.88,396.75c0,18.16-14.72,32.88-32.88,32.88h-66.1c-18.17,0-32.89-14.72-32.89-32.88v-66.1c0-18.17,14.72-32.89,32.89-32.89h66.1c18.16,0,32.88,14.72,32.88,32.89v66.1Z"/>
  <path fill="#5bbdb1" d="M411.98,33.09h-96.06c-30.7,0-55.58,24.88-55.58,55.58v96.06c0,30.69,24.88,55.58,55.58,55.58h96.06c30.69,0,55.58-24.89,55.58-55.58v-96.06c0-30.7-24.89-55.58-55.58-55.58ZM429.88,169.75c0,18.16-14.72,32.88-32.88,32.88h-66.1c-18.17,0-32.89-14.72-32.89-32.88v-66.1c0-18.17,14.72-32.89,32.89-32.89h66.1c18.16,0,32.88,14.72,32.88,32.89v66.1Z"/>
  <circle fill="#5bbdb1" cx="363.75" cy="363.71" r="28.25"/>
  <circle fill="#5bbdb1" cx="297.81" cy="297.77" r="28.25"/>
  <circle fill="#5bbdb1" cx="429.68" cy="297.77" r="28.25"/>
  <circle fill="#5bbdb1" cx="429.68" cy="429.63" r="28.25"/>
  <circle fill="#5bbdb1" cx="297.81" cy="429.63" r="28.25"/>
</svg>