<svg width="24" height="24" viewBox="0 0 24 24" fill="none" xmlns="http://www.w3.org/2000/svg">
<path fill-rule="evenodd" clip-rule="evenodd" d="M9.8035 3.74154C9.19427 3.74154 8.63461 4.08174 8.33984 4.63059C8.186 4.91672 8.02045 5.21521 7.86444 5.4755C7.71806 5.71973 7.54867 5.98418 7.38823 6.16605L7.37409 6.18171C6.83896 6.75921 6.10759 7.09826 5.33415 7.12979C5.32299 7.13024 5.31182 7.13047 5.30066 7.13047C3.86088 7.13047 2.6942 8.3294 2.69231 9.81076V16.361C2.69231 18.5136 4.38731 20.2585 6.47851 20.2585H17.5215C19.6118 20.2585 21.3077 18.5134 21.3077 16.361V9.80786C21.3077 8.3255 20.1399 7.12369 18.6994 7.12369C18.6892 7.12369 18.6792 7.12351 18.6692 7.12313C17.893 7.09467 17.1596 6.75325 16.6259 6.17714L16.6126 6.16249C16.4519 5.98086 16.2873 5.72083 16.1467 5.48214C15.9969 5.22755 15.8394 4.9361 15.693 4.65377C15.4001 4.09136 14.8339 3.74154 14.2174 3.74154H9.8035ZM6.85889 3.78781C7.45114 2.68535 8.57745 2 9.8035 2H14.2174C15.4623 2 16.5997 2.70728 17.1851 3.83223C17.324 4.09992 17.466 4.36223 17.5941 4.57971C17.7259 4.80352 17.816 4.93352 17.8587 4.98394C18.0853 5.22422 18.393 5.36704 18.7171 5.38219C21.0841 5.39205 23 7.36978 23 9.80786V16.361C23 19.475 20.5466 22 17.5215 22H6.47851C3.45215 22 1 19.4748 1 16.361V9.81018C1.00273 7.37409 2.91648 5.39989 5.28094 5.38898C5.60705 5.37212 5.91389 5.22936 6.14099 4.98879C6.1882 4.93297 6.28447 4.79417 6.42409 4.56123C6.56008 4.33435 6.71087 4.06312 6.85889 3.78781Z" fill="#2B2B2B"/>
<path fill-rule="evenodd" clip-rule="evenodd" d="M17.8358 8.60719C18.3031 8.60719 18.6819 8.99704 18.6819 9.47796V9.54572C18.6819 10.0266 18.3031 10.4165 17.8358 10.4165C17.3685 10.4165 16.9896 10.0266 16.9896 9.54572V9.47796C16.9896 8.99704 17.3685 8.60719 17.8358 8.60719Z" fill="#2B2B2B"/>
<path fill-rule="evenodd" clip-rule="evenodd" d="M7.66346 13.2838C7.66346 10.8206 9.60417 8.822 11.9992 8.822C14.3943 8.822 16.335 10.8206 16.335 13.2838C16.335 15.7485 14.3942 17.7458 11.9992 17.7458C9.60435 17.7458 7.66346 15.7485 7.66346 13.2838ZM11.9992 10.5636C10.5392 10.5636 9.35577 11.7821 9.35577 13.2838C9.35577 14.7867 10.539 16.0042 11.9992 16.0042C13.4596 16.0042 14.6427 14.7867 14.6427 13.2838C14.6427 11.7821 13.4593 10.5636 11.9992 10.5636Z" fill="#2B2B2B"/>
</svg>
