<svg width="24" height="24" viewBox="0 0 24 24" fill="none" xmlns="http://www.w3.org/2000/svg">
<path fill-rule="evenodd" clip-rule="evenodd" d="M16.0049 2C19.1723 2 21.3 4.16273 21.3 7.38122V16.6188C21.3 19.8654 19.2378 21.9769 16.0462 21.997L8.29607 22C5.1287 22 3 19.8373 3 16.6188V7.38122C3 4.1336 5.06221 2.0231 8.25376 2.00402L16.0039 2H16.0049ZM16.0049 3.50678L8.25879 3.5108C5.91349 3.52486 4.51115 4.97137 4.51115 7.38122V16.6188C4.51115 19.0447 5.92659 20.4932 8.29506 20.4932L16.0412 20.4902C18.3865 20.4761 19.7889 19.0276 19.7889 16.6188V7.38122C19.7889 4.9553 18.3744 3.50678 16.0049 3.50678ZM15.8106 15.5346C16.2277 15.5346 16.5662 15.8721 16.5662 16.288C16.5662 16.7039 16.2277 17.0414 15.8106 17.0414H8.53695C8.11987 17.0414 7.78137 16.7039 7.78137 16.288C7.78137 15.8721 8.11987 15.5346 8.53695 15.5346H15.8106ZM15.8106 11.3292C16.2277 11.3292 16.5662 11.6667 16.5662 12.0826C16.5662 12.4984 16.2277 12.836 15.8106 12.836H8.53695C8.11987 12.836 7.78137 12.4984 7.78137 12.0826C7.78137 11.6667 8.11987 11.3292 8.53695 11.3292H15.8106ZM11.3121 7.1335C11.7292 7.1335 12.0677 7.47102 12.0677 7.88689C12.0677 8.30276 11.7292 8.64028 11.3121 8.64028H8.53664C8.11957 8.64028 7.78107 8.30276 7.78107 7.88689C7.78107 7.47102 8.11957 7.1335 8.53664 7.1335H11.3121Z" fill="#2B2B2B"/>
</svg>
