<svg width="20" height="20" viewBox="0 0 20 20" fill="none" xmlns="http://www.w3.org/2000/svg">
<path d="M17.3581 6.6751L11.8998 2.30843C10.8331 1.45843 9.16647 1.4501 8.10814 2.3001L2.64981 6.6751C1.86647 7.3001 1.39147 8.5501 1.55814 9.53343L2.60814 15.8168C2.84981 17.2251 4.15814 18.3334 5.58314 18.3334H14.4165C15.8248 18.3334 17.1581 17.2001 17.3998 15.8084L18.4498 9.5251C18.5998 8.5501 18.1248 7.3001 17.3581 6.6751ZM10.6248 15.0001C10.6248 15.3418 10.3415 15.6251 9.99981 15.6251C9.65814 15.6251 9.37481 15.3418 9.37481 15.0001V12.5001C9.37481 12.1584 9.65814 11.8751 9.99981 11.8751C10.3415 11.8751 10.6248 12.1584 10.6248 12.5001V15.0001Z" fill="#5BBDB1"/>
</svg>
