<svg width="20" height="20" viewBox="0 0 20 20" fill="none" xmlns="http://www.w3.org/2000/svg">
<path d="M10.0015 17.9919C9.83567 17.9919 9.67676 17.9261 9.55951 17.8089C9.44234 17.6917 9.37651 17.5327 9.37651 17.3669V14.9919C9.37651 14.8262 9.44234 14.6672 9.55951 14.55C9.67676 14.4328 9.83567 14.3669 10.0015 14.3669C10.1673 14.3669 10.3262 14.4328 10.4434 14.55C10.5606 14.6672 10.6265 14.8262 10.6265 14.9919V17.3653C10.6267 17.4475 10.6107 17.529 10.5793 17.605C10.5481 17.681 10.5021 17.7501 10.444 17.8083C10.3859 17.8665 10.317 17.9127 10.241 17.9442C10.1651 17.9757 10.0837 17.9919 10.0015 17.9919Z" fill="#2B2B2B"/>
<path d="M10.0031 15.6192C9.13017 15.6176 8.26617 15.444 7.46037 15.1083C6.65458 14.7727 5.92281 14.2815 5.30688 13.6629C4.69095 13.0443 4.20294 12.3105 3.87071 11.5032C3.53848 10.6961 3.36855 9.83125 3.37062 8.95833C3.37074 8.87641 3.387 8.79525 3.41847 8.71958C3.44993 8.64391 3.49599 8.57516 3.55402 8.51725C3.61207 8.45941 3.68093 8.4135 3.7567 8.38225C3.83247 8.35091 3.91366 8.33491 3.99562 8.33508C4.07771 8.33525 4.15894 8.35166 4.23468 8.38325C4.31042 8.41483 4.3792 8.46108 4.43707 8.51925C4.49496 8.5775 4.54082 8.6465 4.57203 8.72241C4.60323 8.79833 4.61918 8.87958 4.61897 8.96166C4.61897 9.66833 4.75813 10.368 5.02855 11.0208C5.29896 11.6737 5.69531 12.2668 6.19497 12.7665C6.69462 13.2662 7.2878 13.6625 7.94063 13.9329C8.59351 14.2033 9.29317 14.3425 9.99976 14.3425C10.7064 14.3425 11.4061 14.2033 12.0589 13.9329C12.7118 13.6625 13.3049 13.2662 13.8046 12.7665C14.3043 12.2668 14.7006 11.6737 14.971 11.0208C15.2414 10.368 15.3806 9.66833 15.3806 8.96166C15.3805 8.87958 15.3966 8.79833 15.4278 8.7225C15.4592 8.64658 15.5052 8.57766 15.5631 8.5195C15.6211 8.46141 15.6899 8.41525 15.7657 8.38375C15.8415 8.35225 15.9227 8.336 16.0048 8.33583C16.0868 8.33575 16.1681 8.35183 16.2439 8.38316C16.3198 8.41441 16.3887 8.46041 16.4467 8.51841C16.5048 8.57633 16.5508 8.64525 16.5822 8.721C16.6136 8.79675 16.6298 8.878 16.6298 8.96008C16.6313 10.721 15.9348 12.4107 14.6926 13.659C13.4504 14.9072 11.7641 15.6122 10.0031 15.6192Z" fill="#2B2B2B"/>
<path d="M10.0033 12.6225C9.51984 12.6216 9.04134 12.5254 8.59501 12.3395C8.14869 12.1537 7.74339 11.8816 7.40226 11.539C7.06112 11.1964 6.79085 10.7899 6.60687 10.3428C6.42289 9.89575 6.32881 9.41675 6.33001 8.93325V5.41662C6.32267 4.92941 6.4123 4.4456 6.59367 3.99335C6.77504 3.5411 7.04455 3.12945 7.38649 2.78231C7.72843 2.43518 8.13599 2.1595 8.58542 1.97134C9.03492 1.78318 9.51734 1.68628 10.0046 1.68628C10.4918 1.68628 10.9743 1.78318 11.4238 1.97134C11.8732 2.1595 12.2808 2.43518 12.6227 2.78231C12.9647 3.12945 13.2342 3.5411 13.4155 3.99335C13.5969 4.4456 13.6865 4.92941 13.6792 5.41662V8.935C13.6802 9.41825 13.5859 9.89691 13.4019 10.3438C13.2179 10.7907 12.9477 11.1969 12.6067 11.5393C12.2656 11.8817 11.8605 12.1536 11.4144 12.3395C10.9683 12.5253 10.4899 12.6215 10.0067 12.6225H10.0033ZM10.0033 2.99161C9.36051 2.9925 8.74434 3.2483 8.28989 3.7029C7.83543 4.15751 7.57985 4.77381 7.57918 5.41662V8.935C7.57321 9.25716 7.6315 9.57733 7.75067 9.87666C7.86983 10.1761 8.04747 10.4487 8.27321 10.6787C8.49892 10.9087 8.76826 11.0913 9.06542 11.216C9.36251 11.3407 9.68151 11.4049 10.0038 11.4049C10.326 11.4049 10.645 11.3407 10.9422 11.216C11.2393 11.0913 11.5086 10.9087 11.7343 10.6787C11.9601 10.4487 12.1377 10.1761 12.2568 9.87666C12.376 9.57733 12.4343 9.25716 12.4283 8.935V5.41662C12.4277 4.77367 12.172 4.15725 11.7173 3.70262C11.2628 3.248 10.6463 2.99228 10.0033 2.99161Z" fill="#2B2B2B"/>
<path fill-rule="evenodd" clip-rule="evenodd" d="M11.7832 18.7501C12.1284 18.7501 12.4082 18.4703 12.4082 18.1251C12.4082 17.7799 12.1284 17.5001 11.7832 17.5001H8.12484C7.77966 17.5001 7.49984 17.7799 7.49984 18.1251C7.49984 18.4703 7.77966 18.7501 8.12484 18.7501H11.7832Z" fill="#2B2B2B"/>
</svg>
