<svg width="16" height="16" viewBox="0 0 16 16" fill="none" xmlns="http://www.w3.org/2000/svg">
<g clip-path="url(#clip0_2352_7693)">
<path d="M11.2725 11.2724C11.5178 11.0271 11.9058 11.0119 12.1689 11.2266L12.22 11.2724L15.1276 14.1801L15.1741 14.2311C15.3885 14.4943 15.3729 14.8823 15.1276 15.1275C14.8824 15.3727 14.4944 15.3884 14.2313 15.174L14.1803 15.1275L11.2725 12.2198L11.2268 12.1688C11.0121 11.9056 11.0272 11.5177 11.2725 11.2724Z" fill="#111111"/>
<path d="M12.6702 7.97995C12.6702 5.38974 10.5704 3.28995 7.9802 3.28995C5.38998 3.28995 3.2902 5.38974 3.2902 7.97995C3.2902 10.5702 5.38998 12.67 7.9802 12.67C10.5704 12.67 12.6702 10.5702 12.6702 7.97995ZM14.0102 7.97995C14.0102 11.3103 11.3105 14.01 7.9802 14.01C4.64992 14.01 1.9502 11.3103 1.9502 7.97995C1.9502 4.64968 4.64992 1.94995 7.9802 1.94995C11.3105 1.94995 14.0102 4.64968 14.0102 7.97995Z" fill="#111111"/>
</g>
<defs>
<clipPath id="clip0_2352_7693">
<rect width="16" height="16" fill="white"/>
</clipPath>
</defs>
</svg>
