<svg width="24" height="24" viewBox="0 0 24 24" fill="none" xmlns="http://www.w3.org/2000/svg">
<path d="M21.3062 14.73C21.719 14.7637 22.0264 15.1257 21.9927 15.5386V15.5435C21.9924 15.5466 21.9912 15.5512 21.9907 15.5571C21.9897 15.5699 21.9888 15.5895 21.9868 15.6138C21.9829 15.6622 21.9771 15.7325 21.9702 15.8179C21.9564 15.989 21.9372 16.2225 21.9175 16.4731C21.8778 16.9785 21.8353 17.5422 21.8198 17.8071V17.8091C21.7667 18.6765 21.436 19.6555 20.8452 20.3667C20.442 20.8536 19.9827 21.2059 19.4468 21.4302C18.9171 21.6519 18.3521 21.7328 17.7603 21.7339C16.5218 21.7359 7.52633 21.7359 6.28857 21.7339C5.69679 21.7327 5.13163 21.6518 4.60205 21.4302C4.06645 21.2059 3.60661 20.8543 3.20361 20.3677C2.6868 19.7454 2.36928 18.9169 2.26318 18.1382L2.23096 17.8081C2.21496 17.5425 2.17114 16.9783 2.13135 16.4731C2.11161 16.2226 2.09338 15.989 2.07959 15.8179C2.0727 15.7324 2.06692 15.6622 2.06299 15.6138C2.06102 15.5895 2.05915 15.5699 2.05811 15.5571C2.05762 15.5512 2.05739 15.5466 2.05713 15.5435V15.5386C2.02341 15.1259 2.33008 14.764 2.74268 14.73C3.15551 14.6962 3.51754 15.0037 3.55127 15.4165L3.55225 15.4175V15.4214C3.55252 15.4247 3.55271 15.4298 3.55322 15.436C3.55427 15.4489 3.55615 15.4677 3.55811 15.4917C3.56206 15.5404 3.56778 15.6109 3.57471 15.6968C3.58856 15.8686 3.60758 16.1039 3.62744 16.356C3.66689 16.8567 3.71103 17.436 3.72803 17.7183C3.75953 18.2444 3.94513 18.8168 4.22998 19.2388L4.35791 19.4097L4.35889 19.4106L4.4585 19.5249C4.69203 19.779 4.92973 19.9417 5.18213 20.0474C5.4766 20.1705 5.8317 20.233 6.2915 20.2339H17.7573C18.2174 20.233 18.5731 20.1706 18.8677 20.0474C19.156 19.9267 19.4251 19.7317 19.6909 19.4106L19.6919 19.4097C20.0483 18.981 20.2859 18.3193 20.3228 17.7173C20.3394 17.4335 20.3831 16.8554 20.4224 16.356C20.4422 16.1038 20.4613 15.8686 20.4751 15.6968C20.482 15.6109 20.4877 15.5404 20.4917 15.4917C20.4936 15.4677 20.4946 15.4489 20.4956 15.436C20.4961 15.4298 20.4973 15.4247 20.4976 15.4214V15.4155C20.5315 15.0029 20.8935 14.6963 21.3062 14.73Z" fill="#2B2B2B"/>
<path d="M7.74609 5.32959V4.9585C7.74609 3.32428 9.06989 2.00049 10.7041 2.00049H13.2861C14.9185 2.00051 16.2431 3.32302 16.2441 4.95654L16.2451 5.32764C16.2461 5.74177 15.9112 6.07847 15.4971 6.07959C15.0829 6.08068 14.7463 5.74572 14.7451 5.33154L14.7441 4.96045V4.9585C14.7441 4.15294 14.0911 3.50051 13.2861 3.50049H10.7041C9.89831 3.50049 9.24609 4.15271 9.24609 4.9585V5.32959C9.24604 5.74376 8.91027 6.07959 8.49609 6.07959C8.08191 6.07959 7.74615 5.74376 7.74609 5.32959Z" fill="#2B2B2B"/>
<path d="M11.2451 16.6782V15.3843C11.2451 14.9701 11.5809 14.6343 11.9951 14.6343C12.4093 14.6343 12.7451 14.9701 12.7451 15.3843V16.6782C12.7451 17.0924 12.4093 17.4282 11.9951 17.4282C11.5809 17.4282 11.2451 17.0924 11.2451 16.6782Z" fill="#2B2B2B"/>
<path d="M20.4902 8.38867C20.49 7.10874 19.462 6.08105 18.1826 6.08105H5.81738C4.53485 6.08105 3.50021 7.11193 3.5 8.38867V11.4453C5.1036 12.4402 6.97271 13.1643 9.01367 13.5225C9.56475 12.442 10.6791 11.7002 11.9902 11.7002C13.2798 11.7003 14.4103 12.4389 14.9551 13.5322C17.004 13.1734 18.8795 12.4473 20.4902 11.4453V8.38867ZM21.9902 11.8564C21.9901 12.1081 21.8632 12.3426 21.6533 12.4814C19.6296 13.8197 17.2163 14.7453 14.5762 15.1113C14.1977 15.1638 13.8402 14.923 13.7461 14.5527C13.5482 13.7732 12.8337 13.2003 11.9902 13.2002C11.1322 13.2002 10.4266 13.7705 10.2109 14.5566C10.1112 14.9198 9.75783 15.1525 9.38477 15.1006C6.75417 14.7345 4.34978 13.81 2.33691 12.4824C2.12659 12.3437 2.00013 12.1084 2 11.8564V8.38867C2.00021 6.27777 3.71217 4.58105 5.81738 4.58105H18.1826C20.291 4.58105 21.99 6.28096 21.9902 8.38867V11.8564Z" fill="#2B2B2B"/>
</svg>
