<svg width="24" height="24" viewBox="0 0 24 24" fill="none" xmlns="http://www.w3.org/2000/svg">
<path d="M18.8086 17.4199C18.8085 17.0558 18.5124 16.7599 18.1484 16.7597H15.7099C15.345 16.7597 15.0489 17.0555 15.0488 17.4199V18.789C15.0489 19.1542 15.3447 19.4492 15.7099 19.4492H18.1484C18.5127 19.449 18.8085 19.1539 18.8086 18.789V17.4199ZM16.917 14.4443C16.4284 14.4507 16.0317 14.8457 16.0234 15.3359V15.6601H17.8349V15.3388L17.8291 15.247C17.7774 14.7908 17.3869 14.4386 16.917 14.4443ZM19.9082 18.789C19.9081 19.7619 19.1198 20.5496 18.1484 20.5498H15.7099C14.7372 20.5498 13.9493 19.7617 13.9492 18.789V17.4199C13.9493 16.7307 14.346 16.1345 14.9238 15.8457V15.3173C14.9421 14.2327 15.8199 13.3582 16.9043 13.3447L17.1094 13.3525C18.1219 13.4429 18.922 14.2869 18.9345 15.3261V15.8466C19.5114 16.1357 19.9081 16.7311 19.9082 17.4199V18.789Z" fill="#2B2B2B"/>
<path d="M5.19238 19.7168C5.19246 18.4862 5.67873 17.1162 6.84473 16.0596C8.01271 15.0012 9.79484 14.3165 12.2861 14.3164C12.7003 14.3164 13.0361 14.6522 13.0361 15.0664C13.0361 15.4806 12.7003 15.8164 12.2861 15.8164C10.068 15.8165 8.67807 16.4219 7.85156 17.1709C7.02341 17.9215 6.69246 18.8762 6.69238 19.7168C6.69238 20.131 6.3566 20.4668 5.94238 20.4668C5.52817 20.4668 5.19238 20.131 5.19238 19.7168Z" fill="#2B2B2B"/>
<path d="M15.5889 8.05273C15.5889 6.2285 14.1097 4.75013 12.2861 4.75C10.4625 4.75 8.9834 6.22843 8.9834 8.05273C8.98352 9.87619 10.4627 11.3555 12.2861 11.3555C14.1095 11.3553 15.5888 9.87612 15.5889 8.05273ZM17.0889 8.05273C17.0888 10.7046 14.938 12.8553 12.2861 12.8555C9.63431 12.8555 7.48352 10.7046 7.4834 8.05273C7.4834 5.39979 9.63433 3.25 12.2861 3.25C14.9379 3.25013 17.0889 5.39988 17.0889 8.05273Z" fill="#2B2B2B"/>
</svg>
