<svg width="24" height="24" viewBox="0 0 24 24" fill="none" xmlns="http://www.w3.org/2000/svg">
<path d="M12.5915 2.26831C17.9667 2.59518 22.0589 7.2165 21.7322 12.5916C21.707 13.0049 21.3515 13.3196 20.9382 13.2947C20.5248 13.2695 20.2099 12.9142 20.2351 12.5007C20.5117 7.95251 17.0491 4.04197 12.5007 3.76538C7.95246 3.48881 4.04195 6.95142 3.76536 11.4998C3.48907 16.0469 6.95157 19.9585 11.4997 20.2351C11.913 20.2605 12.228 20.6158 12.2029 21.0291C12.1777 21.4425 11.8214 21.7573 11.4079 21.7322C6.0328 21.4051 1.94149 16.782 2.26829 11.408C2.59533 6.03297 7.21658 1.94158 12.5915 2.26831Z" fill="#2B2B2B"/>
<path d="M11.5791 8.58789C11.5791 8.17368 11.9149 7.83789 12.3291 7.83789C12.7433 7.83789 13.0791 8.17368 13.0791 8.58789V12.6865C13.0789 12.9502 12.9402 13.1947 12.7139 13.3301L9.53905 15.2275C9.18353 15.4401 8.72329 15.3243 8.51073 14.9688C8.29836 14.6133 8.41408 14.1529 8.76952 13.9404L11.5791 12.2598V8.58789Z" fill="#2B2B2B"/>
<path d="M16.694 20.9838V20.9213C16.6941 20.5071 17.0299 20.1713 17.444 20.1713C17.8581 20.1714 18.194 20.5072 18.194 20.9213V20.9838C18.1938 21.3977 17.858 21.7337 17.444 21.7338C17.03 21.7338 16.6943 21.3978 16.694 20.9838ZM16.6921 18.5502V16.1674C16.6921 15.7532 17.0279 15.4174 17.4421 15.4174C17.8563 15.4174 18.1921 15.7532 18.1921 16.1674V18.5502C18.1921 18.9644 17.8563 19.3002 17.4421 19.3002C17.0279 19.3002 16.6921 18.9644 16.6921 18.5502Z" fill="#2B2B2B"/>
</svg>
