<svg width="24" height="24" viewBox="0 0 24 24" fill="none" xmlns="http://www.w3.org/2000/svg">
<path d="M2.75 15.6543V8.3418C2.75 6.59871 3.06629 5.06241 3.94922 3.9541C4.86057 2.81011 6.25799 2.26367 8.08789 2.26367H9.96289C10.8729 2.26371 11.7281 2.69294 12.2734 3.41895L13.1279 4.55664C13.3918 4.90652 13.8053 5.11299 14.2441 5.11426H16.8945C18.6952 5.11426 20.1016 5.57476 21.0293 6.66113C21.9337 7.7203 22.25 9.22464 22.25 10.999V11.0029L22.2236 15.6592C22.2227 17.4815 21.6821 19.0229 20.5957 20.1094C19.5084 21.1966 17.9654 21.7373 16.1406 21.7373H15.5342C15.1201 21.7372 14.7842 21.4014 14.7842 20.9873C14.7842 20.5732 15.1201 20.2374 15.5342 20.2373H16.1406C17.6714 20.2373 18.795 19.789 19.5352 19.0488C20.2754 18.3085 20.7236 17.1847 20.7236 15.6543V15.6504L20.75 10.999L20.7354 10.4082C20.6695 9.0914 20.3762 8.20571 19.8887 7.63477C19.3547 7.00952 18.4574 6.61426 16.8945 6.61426H14.2393C13.3315 6.61162 12.4772 6.1846 11.9307 5.45996L11.9297 5.45898L11.0742 4.32031C10.8112 3.97001 10.3994 3.76371 9.96289 3.76367H8.08789C6.56204 3.76367 5.66562 4.20638 5.12207 4.88867C4.55018 5.60665 4.25 6.73411 4.25 8.3418V15.6543C4.25 17.1841 4.69878 18.3075 5.44043 19.0479C6.18247 19.7884 7.30948 20.2373 8.84473 20.2373H12.2188C12.6329 20.2373 12.9687 20.5731 12.9688 20.9873C12.9688 21.4015 12.633 21.7373 12.2188 21.7373H8.84473C7.0165 21.7373 5.4702 21.1975 4.38086 20.1104C3.29133 19.023 2.75 17.4791 2.75 15.6543Z" fill="#2B2B2B"/>
<path d="M12.8698 9.55274C13.1608 9.55274 13.4244 9.71438 13.5699 9.953C13.6407 10.0685 13.6879 10.2109 13.6761 10.361C13.6682 10.4764 13.7036 10.5919 13.7666 10.6996C13.9671 11.0268 14.4116 11.1499 14.7577 10.9652C15.1471 10.742 15.6388 10.8767 15.8629 11.2577L16.1265 11.7118C16.3546 12.0929 16.2287 12.5817 15.8354 12.801C15.5011 12.9973 15.3831 13.4322 15.5837 13.7632C15.6466 13.8671 15.7174 13.9556 15.8275 14.0095C15.9652 14.0826 16.0714 14.1981 16.1461 14.3136C16.2917 14.5522 16.2799 14.8447 16.1383 15.1025L15.8629 15.5644C15.7174 15.8107 15.446 15.9646 15.1668 15.9646C15.0291 15.9646 14.8757 15.9262 14.7499 15.8492C14.6476 15.7838 14.5296 15.7607 14.4037 15.7607C14.0143 15.7607 13.6879 16.0801 13.6761 16.4611C13.6761 16.9037 13.3142 17.2501 12.8619 17.2501H12.327C11.8708 17.2501 11.5089 16.9037 11.5089 16.4611C11.501 16.0801 11.1746 15.7607 10.7852 15.7607C10.6554 15.7607 10.5374 15.7838 10.4391 15.8492C10.3132 15.9262 10.1559 15.9646 10.0222 15.9646C9.73897 15.9646 9.46758 15.8107 9.32205 15.5644L9.05066 15.1025C8.90513 14.8524 8.89726 14.5522 9.04279 14.3136C9.10572 14.1981 9.22372 14.0826 9.35745 14.0095C9.46758 13.9556 9.53837 13.8671 9.60524 13.7632C9.8019 13.4322 9.6839 12.9973 9.34958 12.801C8.9602 12.5817 8.83433 12.0929 9.05853 11.7118L9.32205 11.2577C9.55017 10.8767 10.0379 10.742 10.4312 10.9652C10.7734 11.1499 11.2178 11.0268 11.4184 10.6996C11.4814 10.5919 11.5168 10.4764 11.5089 10.361C11.501 10.2109 11.5443 10.0685 11.619 9.953C11.7646 9.71438 12.0281 9.56043 12.3152 9.55274H12.8698ZM12.5984 12.3161C11.9809 12.3161 11.4814 12.801 11.4814 13.4053C11.4814 14.0095 11.9809 14.4906 12.5984 14.4906C13.2159 14.4906 13.7036 14.0095 13.7036 13.4053C13.7036 12.801 13.2159 12.3161 12.5984 12.3161Z" fill="#2B2B2B"/>
</svg>
