<svg width="24" height="24" viewBox="0 0 24 24" fill="none" xmlns="http://www.w3.org/2000/svg">
<path d="M18.5733 13.6094C18.5733 12.0753 18.5907 10.8944 18.6065 9.97852C18.6224 9.05607 18.6362 8.42027 18.6328 7.9541C18.6293 7.47628 18.6064 7.25346 18.5742 7.12891C18.5556 7.05708 18.5405 7.0294 18.4697 6.95801C18.4859 6.97435 18.4319 6.92608 18.2227 6.81641C18.0393 6.72032 17.794 6.60606 17.499 6.47949C16.9101 6.22682 16.159 5.93955 15.3906 5.66895C14.623 5.39861 13.8482 5.1477 13.2109 4.96582C12.8917 4.87472 12.6131 4.80336 12.3916 4.75488C12.2811 4.73069 12.19 4.713 12.1182 4.70215C12.0828 4.6968 12.0547 4.69342 12.0332 4.69141C12.0226 4.69041 12.0137 4.68977 12.0078 4.68945H11.9912C11.9854 4.68977 11.9773 4.69043 11.9668 4.69141C11.9454 4.69342 11.9173 4.69678 11.8818 4.70215C11.8101 4.71302 11.719 4.73063 11.6084 4.75488C11.3871 4.80345 11.1092 4.87555 10.79 4.9668C10.1527 5.14906 9.37728 5.40019 8.60938 5.6709C7.841 5.94179 7.09025 6.22892 6.50099 6.48145C6.20551 6.60808 5.95918 6.72235 5.7754 6.81836C5.56444 6.92858 5.51135 6.97693 5.52833 6.95996C5.45846 7.02979 5.44416 7.05592 5.42579 7.12695C5.3937 7.25105 5.36959 7.47371 5.36622 7.95215C5.36294 8.41862 5.37854 9.05477 5.39454 9.97754C5.41043 10.8939 5.42677 12.0752 5.42677 13.6094C5.42695 16.3254 7.04365 18.2102 8.77638 19.458C9.63811 20.0786 10.5048 20.5228 11.1582 20.8115C11.4838 20.9554 11.7542 21.0595 11.9404 21.127C11.9609 21.1344 11.9806 21.1409 11.999 21.1475C12.0177 21.1408 12.0378 21.1345 12.0586 21.127C12.2449 21.0595 12.5151 20.9554 12.8408 20.8115C13.4944 20.5227 14.3616 20.0788 15.2236 19.458C16.9567 18.21 18.5731 16.3249 18.5733 13.6094ZM20.0733 13.6094C20.0731 17.0065 18.0283 19.286 16.0996 20.6748C15.1307 21.3725 14.1669 21.8656 13.4473 22.1836C13.0866 22.3429 12.7845 22.4595 12.5703 22.5371C12.4632 22.5759 12.3774 22.6052 12.3174 22.625C12.2875 22.6349 12.2639 22.6431 12.2471 22.6484C12.2386 22.6511 12.2316 22.6528 12.2266 22.6543C12.2242 22.655 12.2223 22.6558 12.2207 22.6562L12.2188 22.6572L12 21.9395L12.2168 22.6572C12.1107 22.6893 11.9994 22.6976 11.8906 22.6816L11.7822 22.6572L11.7793 22.6562C11.7777 22.6558 11.775 22.6551 11.7725 22.6543C11.7676 22.6528 11.761 22.651 11.7529 22.6484C11.7361 22.6431 11.7116 22.6349 11.6817 22.625C11.6217 22.6052 11.5366 22.5758 11.4297 22.5371C11.2155 22.4595 10.9135 22.343 10.5527 22.1836C9.83327 21.8657 8.86913 21.3733 7.9004 20.6758C5.97191 19.287 3.92696 17.0069 3.92677 13.6094C3.92677 12.0866 3.91034 10.9141 3.89454 10.0029C3.87886 9.0985 3.86374 8.43201 3.8672 7.94141C3.87057 7.46268 3.89042 7.07281 3.97364 6.75098C4.07059 6.37643 4.24378 6.12231 4.46778 5.89844C4.63201 5.73444 4.87766 5.59454 5.08106 5.48828C5.31196 5.36767 5.59666 5.2369 5.91017 5.10254C6.53892 4.83309 7.32208 4.53377 8.11036 4.25586C8.89904 3.97782 9.7037 3.71696 10.377 3.52441C10.7129 3.42834 11.0234 3.34772 11.2861 3.29004C11.5313 3.23625 11.7916 3.18945 12 3.18945C12.2082 3.1895 12.4677 3.23541 12.7129 3.28906C12.9757 3.3466 13.286 3.42753 13.6221 3.52344C14.2955 3.71563 15.1008 3.97607 15.8897 4.25391C16.678 4.53154 17.4609 4.83079 18.0899 5.10059C18.4033 5.23506 18.6879 5.36621 18.919 5.4873C19.1227 5.59407 19.3696 5.73548 19.5342 5.90137C19.7568 6.1258 19.9296 6.37965 20.0264 6.75391C20.1096 7.07581 20.1293 7.46482 20.1328 7.94336C20.1364 8.43379 20.122 9.09986 20.1065 10.0039C20.0907 10.9147 20.0733 12.0868 20.0733 13.6094Z" fill="#2B2B2B"/>
<path d="M11.251 16.0664V15.9668C11.251 15.5526 11.5868 15.2168 12.001 15.2168C12.4152 15.2168 12.751 15.5526 12.751 15.9668V16.0664C12.7508 16.4804 12.4151 16.8164 12.001 16.8164C11.5869 16.8164 11.2512 16.4804 11.251 16.0664Z" fill="#2B2B2B"/>
<path d="M11.2471 12.9404V9.14648C11.2471 8.73227 11.5829 8.39648 11.9971 8.39648C12.4113 8.39648 12.7471 8.73227 12.7471 9.14648V12.9404C12.7469 13.3545 12.4112 13.6904 11.9971 13.6904C11.583 13.6904 11.2473 13.3545 11.2471 12.9404Z" fill="#2B2B2B"/>
</svg>
