<svg width="24" height="24" viewBox="0 0 24 24" fill="none" xmlns="http://www.w3.org/2000/svg">
<path fill-rule="evenodd" clip-rule="evenodd" d="M7.47183 17.3974C6.6255 18.1642 6.28711 19.1397 6.28711 19.999C6.28711 20.4133 5.95132 20.749 5.53711 20.749C5.1229 20.749 4.78711 20.4133 4.78711 19.999C4.78711 18.7497 5.28056 17.3586 6.46473 16.2858C7.65075 15.2113 9.46162 14.5156 11.9955 14.5156C12.4097 14.5156 12.7455 14.8514 12.7455 15.2656C12.7455 15.6798 12.4097 16.0156 11.9955 16.0156C9.73462 16.0156 8.31632 16.6323 7.47183 17.3974Z" fill="#2B2B2B"/>
<path fill-rule="evenodd" clip-rule="evenodd" d="M11.9946 4.75C10.1308 4.75 8.61914 6.26164 8.61914 8.12542C8.61914 9.98919 10.1308 11.5008 11.9946 11.5008C13.8583 11.5008 15.37 9.98919 15.37 8.12542C15.37 6.26164 13.8583 4.75 11.9946 4.75ZM7.11914 8.12542C7.11914 5.43322 9.30236 3.25 11.9946 3.25C14.6868 3.25 16.87 5.43322 16.87 8.12542C16.87 10.8176 14.6868 13.0008 11.9946 13.0008C9.30236 13.0008 7.11914 10.8176 7.11914 8.12542Z" fill="#2B2B2B"/>
<path fill-rule="evenodd" clip-rule="evenodd" d="M16.9996 18.3333C16.4482 18.3333 15.9996 17.8847 15.9996 17.3333C15.9996 16.782 16.4482 16.3333 16.9996 16.3333C17.5509 16.3333 17.9996 16.782 17.9996 17.3333C17.9996 17.8847 17.5509 18.3333 16.9996 18.3333ZM19.5042 17.638C19.3952 17.5743 19.3299 17.4607 19.3299 17.3333C19.3299 17.206 19.3952 17.0923 19.5046 17.029C19.9772 16.754 20.1396 16.1433 19.8669 15.667C19.7339 15.4357 19.5196 15.2703 19.2629 15.2013C19.0076 15.1337 18.7409 15.169 18.5122 15.302C18.4042 15.3653 18.2752 15.3653 18.1666 15.3023C18.0566 15.2393 17.9909 15.125 17.9909 14.9973C17.9909 14.4477 17.5462 14 16.9996 14C16.4526 14 16.0079 14.4477 16.0079 14.9973C16.0079 15.1253 15.9422 15.2393 15.8322 15.3027C15.7242 15.3647 15.5952 15.3653 15.4872 15.302C15.2579 15.169 14.9916 15.133 14.7356 15.2017C14.4789 15.2707 14.2649 15.436 14.1322 15.6673C13.8596 16.1437 14.0222 16.7543 14.4949 17.0287C14.6039 17.092 14.6689 17.206 14.6689 17.3333C14.6689 17.4607 14.6039 17.5747 14.4949 17.6377C14.0222 17.9127 13.8596 18.5237 14.1322 18.9997C14.2649 19.2307 14.4789 19.396 14.7352 19.465C14.9909 19.5333 15.2579 19.498 15.4872 19.365C15.5949 19.3017 15.7239 19.3017 15.8322 19.364C15.9422 19.4273 16.0079 19.5413 16.0079 19.6693C16.0079 20.219 16.4526 20.6667 16.9996 20.6667C17.5462 20.6667 17.9909 20.219 17.9909 19.6693C17.9909 19.5417 18.0566 19.4273 18.1666 19.3643C18.2749 19.3017 18.4039 19.3017 18.5122 19.365C18.7412 19.498 19.0079 19.5327 19.2629 19.4653C19.5196 19.3963 19.7339 19.231 19.8669 18.9997C20.1396 18.5237 19.9772 17.913 19.5042 17.638Z" fill="#2B2B2B"/>
</svg>
