<svg width="23" height="21" viewBox="0 0 23 21" fill="none" xmlns="http://www.w3.org/2000/svg">
<path d="M13.8565 0C14.9448 0.0113208 15.8312 0.57736 16.3473 1.59623C16.4805 1.8651 16.6663 2.25779 16.8609 2.67203L17.0958 3.17294L17.2112 3.41887L17.3234 3.66793C17.3683 3.74718 17.4468 3.80378 17.5478 3.80378C20.2405 3.80378 22.4396 6.02265 22.4396 8.73964V15.4642C22.4396 18.1812 20.2405 20.4 17.5478 20.4H4.89184C2.18786 20.4 0 18.1812 0 15.4642V8.73964C0 6.02265 2.18786 3.80378 4.89184 3.80378C4.9816 3.80378 5.07135 3.7585 5.10501 3.66793L5.17233 3.53208C5.48649 2.86416 5.86796 2.04906 6.09236 1.59623C6.60847 0.57736 7.48361 0.0113208 8.57194 0H13.8565ZM11.2198 7.25662C10.0417 7.25662 8.93097 7.72077 8.08948 8.56983C7.25922 9.41889 6.79921 10.5283 6.81043 11.7057C6.81043 12.8944 7.27044 14.0038 8.1007 14.8529C8.94219 15.6906 10.0417 16.1547 11.2198 16.1547C12.4316 16.1547 13.5311 15.6566 14.3277 14.8529C15.1243 14.0491 15.618 12.9396 15.6292 11.7057C15.6292 10.5283 15.1692 9.40756 14.3389 8.55851C13.5087 7.72077 12.3979 7.25662 11.2198 7.25662ZM11.2198 8.95473C11.9491 8.95473 12.6335 9.23775 13.1496 9.75851C13.6657 10.2793 13.9462 10.9698 13.9462 11.7057C13.935 13.2227 12.7233 14.4566 11.2198 14.4566C10.4905 14.4566 9.80612 14.1736 9.29 13.6529C8.77389 13.1321 8.4934 12.4415 8.4934 11.7057V11.6944C8.48218 10.9812 8.76267 10.2906 9.27878 9.76983C9.80612 9.23775 10.4905 8.95473 11.2198 8.95473ZM17.5141 6.98492C16.9531 6.98492 16.5043 7.44907 16.5043 8.01511C16.5043 8.58115 16.9531 9.03398 17.5141 9.03398C18.0751 9.03398 18.5351 8.58115 18.5351 8.01511C18.5351 7.44907 18.0751 6.98492 17.5141 6.98492Z" fill="white"/>
</svg>
