<svg width="16" height="16" viewBox="0 0 16 16" fill="none" xmlns="http://www.w3.org/2000/svg">
<g clip-path="url(#clip0_515_1254)">
<path d="M14 7.99996C14 4.68625 11.3138 1.99996 8.00002 1.99996C4.68631 1.99996 2.00002 4.68625 2.00002 7.99996C2.00002 11.3137 4.68631 14 8.00002 14C11.3138 14 14 11.3137 14 7.99996ZM15.3334 7.99996C15.3334 12.05 12.0501 15.3333 8.00002 15.3333C3.94993 15.3333 0.666687 12.05 0.666687 7.99996C0.666687 3.94987 3.94993 0.666626 8.00002 0.666626C12.0501 0.666626 15.3334 3.94987 15.3334 7.99996Z" fill="#319B8F"/>
<path d="M9.57949 6.14971C9.84129 5.93614 10.2273 5.9512 10.4714 6.19528C10.7155 6.43935 10.7306 6.82536 10.517 7.08723L10.4714 7.13796L7.80469 9.80463C7.56062 10.0488 7.17462 10.0638 6.91282 9.85023L6.86202 9.80463L5.52867 8.47129L5.4831 8.42056C5.26953 8.15869 5.28459 7.77269 5.52867 7.52863C5.77275 7.28456 6.15875 7.26949 6.4206 7.48303L6.47138 7.52863L7.33335 8.39056L9.52869 6.19528L9.57949 6.14971Z" fill="#319B8F"/>
</g>
<defs>
<clipPath id="clip0_515_1254">
<rect width="16" height="16" fill="white"/>
</clipPath>
</defs>
</svg>
