<svg width="12" height="12" viewBox="0 0 12 12" fill="none" xmlns="http://www.w3.org/2000/svg">
<path d="M10.5 6C10.5 3.51472 8.4853 1.5 6 1.5C3.51472 1.5 1.5 3.51472 1.5 6C1.5 8.4853 3.51472 10.5 6 10.5C8.4853 10.5 10.5 8.4853 10.5 6ZM11.5 6C11.5 9.03755 9.03755 11.5 6 11.5C2.96244 11.5 0.5 9.03755 0.5 6C0.5 2.96244 2.96244 0.5 6 0.5C9.03755 0.5 11.5 2.96244 11.5 6Z" fill="#364153"/>
<path d="M5.5 3C5.5 2.72386 5.72385 2.5 6 2.5C6.27615 2.5 6.5 2.72386 6.5 3V5.6909L8.22365 6.55275L8.26805 6.5781C8.48215 6.7138 8.56305 6.9921 8.44725 7.22365C8.3315 7.4552 8.0602 7.55765 7.82325 7.46775L7.77635 7.44725L5.77635 6.44725C5.607 6.36255 5.5 6.1894 5.5 6V3Z" fill="#364153"/>
</svg>
