<svg width="21" height="23" viewBox="0 0 21 23" fill="none" xmlns="http://www.w3.org/2000/svg">
<path d="M14.9498 0C18.4507 0 20.4 2.01733 20.4 5.474V17.1813C20.4 20.6947 18.4507 22.6667 14.9498 22.6667H5.45133C2.006 22.6667 0 20.6947 0 17.1813V5.474C0 2.01733 2.006 0 5.45133 0H14.9498ZM5.75733 15.572C5.41733 15.538 5.08867 15.6967 4.90733 15.9913C4.726 16.2747 4.726 16.6487 4.90733 16.9433C5.08867 17.2267 5.41733 17.3967 5.75733 17.3513H14.6427C15.0949 17.306 15.436 16.9195 15.436 16.4673C15.436 16.0027 15.0949 15.6173 14.6427 15.572H5.75733ZM14.6427 10.4029H5.75733C5.26887 10.4029 4.87333 10.8007 4.87333 11.288C4.87333 11.7753 5.26887 12.172 5.75733 12.172H14.6427C15.13 12.172 15.5267 11.7753 15.5267 11.288C15.5267 10.8007 15.13 10.4029 14.6427 10.4029ZM9.14487 5.27H5.75733V5.28133C5.26887 5.28133 4.87333 5.678 4.87333 6.16533C4.87333 6.65267 5.26887 7.04933 5.75733 7.04933H9.14487C9.63333 7.04933 10.03 6.65267 10.03 6.15287C10.03 5.66667 9.63333 5.27 9.14487 5.27Z" fill="white"/>
</svg>
