<svg width="33" height="37" viewBox="0 0 33 37" fill="none" xmlns="http://www.w3.org/2000/svg">
<path d="M23.0996 25.0386C23.8521 25.0386 24.4621 25.6626 24.4621 26.4324C24.4621 27.2022 23.8521 27.8262 23.0996 27.8262H9.98373C9.23123 27.8262 8.62122 27.2022 8.62122 26.4324C8.62122 25.6626 9.23123 25.0386 9.98373 25.0386H23.0996Z" fill="#99A1AF"/>
<path d="M23.0996 17.2587C23.8521 17.2587 24.4621 17.8827 24.4621 18.6524C24.4621 19.4222 23.8521 20.0462 23.0996 20.0462H9.98373C9.23123 20.0462 8.62122 19.4222 8.62122 18.6524C8.62122 17.8827 9.23123 17.2587 9.98373 17.2587H23.0996Z" fill="#99A1AF"/>
<path d="M14.9885 9.49673C15.7409 9.49673 16.351 10.1207 16.351 10.8905C16.351 11.6602 15.7409 12.2843 14.9885 12.2843H9.98373C9.23123 12.2843 8.62122 11.6602 8.62122 10.8905C8.62122 10.1207 9.23123 9.49673 9.98373 9.49673H14.9885Z" fill="#99A1AF"/>
<path d="M30.275 27.044V9.95595C30.275 7.6575 29.5844 5.8891 28.4619 4.70394C27.3445 3.52427 25.6727 2.7876 23.45 2.78752H22.8504C22.4691 2.78773 21.9247 2.78899 21.2714 2.78934C19.9636 2.79003 18.219 2.79022 16.4743 2.79115C13.0682 2.79297 9.65836 2.79288 9.48788 2.79297L9.48965 2.79478C7.28877 2.80865 5.63221 3.54814 4.52395 4.72572C3.41063 5.909 2.72501 7.66973 2.72501 9.95595V27.044C2.72501 29.3427 3.41604 31.111 4.53814 32.2961C5.65503 33.4753 7.32582 34.2124 9.5482 34.2125H9.55174C9.59163 34.2126 9.6316 34.2144 9.67061 34.2179C9.66209 34.2171 9.65391 34.2165 9.64932 34.2161C9.62788 34.2144 9.6106 34.2145 9.60497 34.2143C9.59186 34.2137 9.58159 34.2126 9.57836 34.2125H9.66706C9.82013 34.2123 10.1581 34.2109 10.8983 34.2107C11.6508 34.2104 12.2605 34.8347 12.2608 35.6044C12.2611 36.374 11.6524 36.9977 10.9001 36.9982C10.1608 36.9985 9.82302 36.9998 9.67061 37H9.58368C9.58541 36.9999 9.60535 36.9979 9.6298 36.9964C9.63752 36.9959 9.65504 36.9954 9.66529 36.9946C9.6673 36.9944 9.66962 36.993 9.67238 36.9927C9.63153 36.9965 9.59001 37 9.5482 37L9.54465 36.9982L9.51271 37C9.51027 36.9999 9.50449 36.9985 9.49675 36.9982C6.68419 36.9866 4.28075 36.0309 2.57954 34.2343C0.87354 32.4321 0 29.9186 0 27.044V9.95595C0 7.09456 0.867485 4.59187 2.56002 2.79297C4.25761 0.988792 6.66098 0.0249811 9.47368 0.00725917H10.0875C10.4708 0.00705598 11.017 0.00579257 11.6718 0.00544438C12.9822 0.00474761 14.7279 0.00455862 16.4725 0.00362959C18.2172 0.00270037 19.9618 0.00251173 21.2697 0.00181479C21.9235 0.00146648 22.469 0.000203235 22.8504 0H23.45C26.2845 7.91434e-05 28.7067 0.956657 30.4187 2.76393C32.1256 4.56607 33 7.08077 33 9.95595V27.044C33 29.9053 32.1324 32.4078 30.44 34.207C28.742 36.0116 26.3375 36.9768 23.5245 36.9946H21.7132C20.5932 36.9951 19.0315 36.9957 17.2584 36.9964C16.5062 36.9966 15.8948 36.3738 15.8941 35.6044C15.8939 34.8348 16.5043 34.2093 17.2567 34.2088C20.6958 34.2076 23.3417 34.2071 23.5086 34.207L23.9148 34.1961C25.9146 34.0991 27.4365 33.3791 28.476 32.2743C29.5898 31.0904 30.275 29.3299 30.275 27.044ZM9.71319 36.9873C9.72738 36.9855 9.7423 36.9854 9.75399 36.9837C9.75668 36.9832 9.75941 36.9808 9.76286 36.98C9.74636 36.9827 9.72988 36.9852 9.71319 36.9873ZM10.2561 36.7913C10.2606 36.789 10.2658 36.7882 10.2703 36.7859V36.7822C10.2655 36.7853 10.2608 36.7883 10.2561 36.7913ZM9.96156 34.2833C9.95539 34.2796 9.94985 34.2753 9.94382 34.2724C9.92488 34.2671 9.90302 34.2629 9.88173 34.2578C9.90894 34.2649 9.93503 34.2746 9.96156 34.2833Z" fill="#99A1AF"/>
</svg>
