<svg width="20" height="20" viewBox="0 0 20 20" fill="none" xmlns="http://www.w3.org/2000/svg">
<path d="M17.3583 6.6751L11.9 2.30843C10.8333 1.45843 9.16666 1.4501 8.10832 2.3001L2.64999 6.6751C1.86666 7.3001 1.39166 8.5501 1.55832 9.53343L2.60832 15.8168C2.84999 17.2251 4.15832 18.3334 5.58332 18.3334H14.4167C15.825 18.3334 17.1583 17.2001 17.4 15.8084L18.45 9.5251C18.6 8.5501 18.125 7.3001 17.3583 6.6751ZM10.625 15.0001C10.625 15.3418 10.3417 15.6251 9.99999 15.6251C9.65832 15.6251 9.37499 15.3418 9.37499 15.0001V12.5001C9.37499 12.1584 9.65832 11.8751 9.99999 11.8751C10.3417 11.8751 10.625 12.1584 10.625 12.5001V15.0001Z" fill="#5BBDB1"/>
</svg>
