<svg width="12" height="12" viewBox="0 0 12 12" fill="none" xmlns="http://www.w3.org/2000/svg">
<g clip-path="url(#clip0_515_1320)">
<path d="M7.96679 7.96679C8.15076 7.78282 8.4417 7.77147 8.63909 7.93247L8.67738 7.96679L10.8581 10.1476L10.893 10.1858C11.0538 10.3832 11.042 10.6742 10.8581 10.8581C10.6742 11.042 10.3832 11.0538 10.1858 10.893L10.1476 10.8581L7.96679 8.67737L7.93247 8.63908C7.77147 8.4417 7.78283 8.15075 7.96679 7.96679Z" fill="#364153"/>
<path d="M9.01504 5.49748C9.01504 3.55482 7.4402 1.97998 5.49754 1.97998C3.55488 1.97998 1.98004 3.55482 1.98004 5.49748C1.98004 7.44014 3.55488 9.01498 5.49754 9.01498C7.4402 9.01498 9.01504 7.44014 9.01504 5.49748ZM10.02 5.49748C10.02 7.9952 7.99526 10.02 5.49754 10.02C2.99983 10.02 0.975037 7.9952 0.975037 5.49748C0.975037 2.99977 2.99983 0.974976 5.49754 0.974976C7.99526 0.974976 10.02 2.99977 10.02 5.49748Z" fill="#364153"/>
</g>
<defs>
<clipPath id="clip0_515_1320">
<rect width="12" height="12" fill="white"/>
</clipPath>
</defs>
</svg>
