<svg width="20" height="20" viewBox="0 0 20 20" fill="none" xmlns="http://www.w3.org/2000/svg">
<path fill-rule="evenodd" clip-rule="evenodd" d="M10.2228 1.66711C10.8195 1.66711 11.3995 1.91211 11.8153 2.33795C12.2303 2.76628 12.4595 3.35378 12.442 3.94961C12.4436 4.08378 12.4878 4.23878 12.5678 4.37461C12.7003 4.59961 12.9095 4.75795 13.1578 4.82295C13.4061 4.88461 13.6661 4.85128 13.887 4.72045C14.9536 4.11128 16.3111 4.47628 16.9203 5.53461L17.4395 6.43378C17.4528 6.45795 17.4645 6.48128 17.4745 6.50545C18.0261 7.54795 17.6578 8.86045 16.6328 9.45961C16.4836 9.54545 16.3628 9.66545 16.2795 9.81045C16.1503 10.0346 16.1145 10.3013 16.1795 10.5463C16.2461 10.7963 16.4053 11.0038 16.6295 11.1321C17.1353 11.4229 17.5128 11.9129 17.6636 12.4788C17.8145 13.0438 17.732 13.6571 17.4378 14.1629L16.8845 15.0846C16.2753 16.1313 14.9178 16.4938 13.862 15.8838C13.7211 15.8029 13.5586 15.7588 13.397 15.7546H13.392C13.1511 15.7546 12.9036 15.8571 12.7236 16.0363C12.5411 16.2188 12.4411 16.4621 12.4428 16.7204C12.437 17.9446 11.4411 18.9346 10.2228 18.9346H9.17862C7.95445 18.9346 6.95862 17.9396 6.95862 16.7154C6.95695 16.5646 6.91362 16.4079 6.83279 16.2721C6.70195 16.0438 6.49029 15.8804 6.24612 15.8154C6.00362 15.7504 5.73779 15.7863 5.51945 15.9129C4.99612 16.2046 4.38029 16.2754 3.81695 16.1171C3.25445 15.9579 2.76862 15.5713 2.48362 15.0588L1.96279 14.1613C1.35362 13.1046 1.71612 11.7504 2.77112 11.1404C3.07029 10.9679 3.25612 10.6463 3.25612 10.3013C3.25612 9.95628 3.07029 9.63378 2.77112 9.46128C1.71529 8.84795 1.35362 7.49045 1.96195 6.43378L2.52695 5.50628C3.12779 4.46128 4.48612 4.09295 5.54529 4.70128C5.68945 4.78711 5.84612 4.83045 6.00529 4.83211C6.52445 4.83211 6.95862 4.40378 6.96695 3.87711C6.96362 3.29628 7.19279 2.73878 7.61029 2.31795C8.02945 1.89795 8.58612 1.66711 9.17862 1.66711H10.2228ZM10.2228 2.91711H9.17862C8.92029 2.91711 8.67862 3.01795 8.49612 3.19961C8.31445 3.38211 8.21529 3.62461 8.21695 3.88295C8.19945 5.10128 7.20362 6.08211 5.99779 6.08211C5.61112 6.07795 5.23862 5.97378 4.91529 5.78045C4.46112 5.52211 3.86779 5.68128 3.60195 6.14378L3.03779 7.07128C2.77945 7.51961 2.93779 8.11211 3.39779 8.37961C4.08029 8.77461 4.50612 9.51128 4.50612 10.3013C4.50612 11.0913 4.08029 11.8271 3.39612 12.2229C2.93862 12.4879 2.78029 13.0771 3.04529 13.5354L3.57112 14.4421C3.70112 14.6763 3.91362 14.8454 4.15945 14.9146C4.40445 14.9829 4.67445 14.9538 4.89945 14.8288C5.23029 14.6346 5.61529 14.5338 6.00195 14.5338C6.19279 14.5338 6.38362 14.5579 6.57029 14.6079C7.13362 14.7596 7.62279 15.1363 7.91279 15.6421C8.10112 15.9596 8.20529 16.3304 8.20862 16.7088C8.20862 17.2504 8.64362 17.6846 9.17862 17.6846H10.2228C10.7553 17.6846 11.1903 17.2529 11.1928 16.7204C11.1895 16.1321 11.4195 15.5729 11.8403 15.1521C12.2553 14.7371 12.8353 14.4879 13.4153 14.5046C13.7953 14.5138 14.1611 14.6163 14.4836 14.7996C14.9478 15.0654 15.5403 14.9071 15.8086 14.4488L16.362 13.5263C16.4853 13.3138 16.5211 13.0471 16.4553 12.8013C16.3903 12.5554 16.227 12.3421 16.007 12.2163C15.492 11.9196 15.1245 11.4413 14.972 10.8679C14.8211 10.3054 14.9036 9.69128 15.1978 9.18545C15.3895 8.85211 15.6703 8.57128 16.007 8.37795C16.4586 8.11378 16.617 7.52295 16.3545 7.06295C16.3436 7.04461 16.3336 7.02545 16.3253 7.00545L15.837 6.15878C15.5711 5.69628 14.9795 5.53711 14.5153 5.80128C14.0136 6.09795 13.417 6.18295 12.8436 6.03211C12.2711 5.88378 11.7911 5.52128 11.492 5.00961C11.3003 4.68961 11.1961 4.31711 11.1928 3.93795C11.2003 3.65295 11.1003 3.39711 10.9186 3.20961C10.7378 3.02295 10.4836 2.91711 10.2228 2.91711ZM9.70437 7.47886C11.2602 7.47886 12.526 8.74553 12.526 10.3014C12.526 11.8572 11.2602 13.1222 9.70437 13.1222C8.14854 13.1222 6.8827 11.8572 6.8827 10.3014C6.8827 8.74553 8.14854 7.47886 9.70437 7.47886ZM9.70437 8.72886C8.8377 8.72886 8.1327 9.4347 8.1327 10.3014C8.1327 11.168 8.8377 11.8722 9.70437 11.8722C10.571 11.8722 11.276 11.168 11.276 10.3014C11.276 9.4347 10.571 8.72886 9.70437 8.72886Z" fill="#1E2939"/>
</svg>
