<svg width="16" height="16" viewBox="0 0 16 16" fill="none" xmlns="http://www.w3.org/2000/svg">
<path d="M13.0867 2.43338C13.0092 2.37072 12.9187 2.32623 12.8218 2.30315C12.7249 2.28008 12.6241 2.27902 12.5267 2.30004C11.8143 2.44934 11.0789 2.45124 10.3658 2.30563C9.65264 2.16002 8.97685 1.86999 8.38002 1.45338C8.26843 1.37596 8.13585 1.33447 8.00002 1.33447C7.8642 1.33447 7.73162 1.37596 7.62002 1.45338C7.02319 1.86999 6.34741 2.16002 5.63427 2.30563C4.92113 2.45124 4.18573 2.44934 3.47336 2.30004C3.37598 2.27902 3.27513 2.28008 3.17822 2.30315C3.08131 2.32623 2.99081 2.37072 2.91336 2.43338C2.83601 2.49612 2.7737 2.5754 2.73102 2.66539C2.68833 2.75537 2.66635 2.85378 2.66669 2.95338V7.92004C2.6661 8.87588 2.89387 9.81802 3.33105 10.668C3.76822 11.518 4.40214 12.2513 5.18002 12.8067L7.61336 14.54C7.72626 14.6204 7.86142 14.6636 8.00002 14.6636C8.13863 14.6636 8.27378 14.6204 8.38669 14.54L10.82 12.8067C11.5979 12.2513 12.2318 11.518 12.669 10.668C13.1062 9.81802 13.3339 8.87588 13.3334 7.92004V2.95338C13.3337 2.85378 13.3117 2.75537 13.269 2.66539C13.2263 2.5754 13.164 2.49612 13.0867 2.43338ZM12 7.92004C12.0005 8.66321 11.8235 9.39576 11.4838 10.0567C11.144 10.7177 10.6513 11.2879 10.0467 11.72L8.00002 13.18L5.95336 11.72C5.34871 11.2879 4.85601 10.7177 4.51626 10.0567C4.1765 9.39576 3.99951 8.66321 4.00002 7.92004V3.72004C5.39764 3.83966 6.79738 3.51539 8.00002 2.79338C9.20266 3.51539 10.6024 3.83966 12 3.72004V7.92004ZM9.02669 6.39338L7.23336 8.19338L6.64002 7.59338C6.51449 7.46784 6.34422 7.39732 6.16669 7.39732C5.98916 7.39732 5.81889 7.46784 5.69336 7.59338C5.56782 7.71891 5.4973 7.88918 5.4973 8.06671C5.4973 8.24424 5.56782 8.41451 5.69336 8.54004L6.76002 9.60671C6.822 9.6692 6.89573 9.71879 6.97697 9.75264C7.05821 9.78648 7.14535 9.80391 7.23336 9.80391C7.32137 9.80391 7.4085 9.78648 7.48974 9.75264C7.57098 9.71879 7.64472 9.6692 7.70669 9.60671L10 7.33338C10.1256 7.20784 10.1961 7.03758 10.1961 6.86004C10.1961 6.68251 10.1256 6.51225 10 6.38671C9.87449 6.26117 9.70422 6.19065 9.52669 6.19065C9.34916 6.19065 9.17889 6.26117 9.05336 6.38671L9.02669 6.39338Z" fill="#319B8F"/>
</svg>
