<svg width="11" height="11" viewBox="0 0 11 11" fill="none" xmlns="http://www.w3.org/2000/svg">
<path d="M10.215 4.80711C10.5468 4.80711 10.8159 5.07614 10.8159 5.408C10.8159 5.73986 10.5469 6.00888 10.215 6.00888L0.600877 6.00884C0.269018 6.00884 -6.61361e-06 5.73982 -7.78318e-06 5.40796C-8.95012e-06 5.0761 0.269014 4.80708 0.600872 4.80708L10.215 4.80711Z" fill="#F7F7F7"/>
<path d="M4.80711 10.215L4.80707 0.600879C4.80707 0.269021 5.0761 -2.32977e-06 5.40795 -1.11015e-06C5.73981 -2.25064e-07 6.00884 0.269025 6.00884 0.600883L6.00887 10.215C6.00887 10.5469 5.73985 10.8159 5.40799 10.8159C5.07613 10.8159 4.80711 10.5469 4.80711 10.215Z" fill="#F7F7F7"/>
</svg>
