<svg width="22" height="22" viewBox="0 0 22 22" fill="none" xmlns="http://www.w3.org/2000/svg">
<path d="M21.7909 11.8968C21.8701 11.9413 21.886 12.0358 21.8892 12.0718L21.8899 12.0861L21.8019 17.7671C21.8019 20.0332 20.0461 21.8812 17.8351 21.9945L17.6198 22H4.36918C2.13025 22 0.304457 20.2228 0.192531 17.9851L0.187094 17.7671L0.110055 12.0861C0.110055 12.0861 0.110055 11.9525 0.209105 11.8968C0.297149 11.8411 0.407204 11.9079 0.418209 11.919C2.64132 13.4117 5.31566 14.4031 8.12206 14.8152C8.51826 14.8709 8.91446 14.6147 9.02451 14.2137C9.2515 13.3574 9.95246 12.7752 10.81 12.7058L10.9835 12.6988H11.0165C11.952 12.6988 12.7334 13.3003 12.9755 14.2137C13.0855 14.6147 13.4817 14.8709 13.8779 14.8152C16.6843 14.4031 19.3587 13.4117 21.5818 11.919C21.5818 11.919 21.6038 11.9079 21.6258 11.8968C21.6698 11.8745 21.7359 11.8633 21.7909 11.8968ZM10.9945 14.2917C10.5809 14.2917 10.232 14.6099 10.1767 15.0147L10.1691 15.1271V16.5641C10.1691 17.0319 10.5433 17.3995 10.9945 17.3995C11.4182 17.3995 11.7587 17.0906 11.8125 16.6788L11.8199 16.5641V15.1271C11.8199 14.6704 11.4567 14.2917 10.9945 14.2917ZM12.4142 0C14.065 0 15.4187 1.25873 15.6278 2.87391H17.8069C20.1181 2.87391 22 4.77871 22 7.11794C22 7.11794 21.934 8.10821 21.912 9.48724C21.9098 9.59641 21.8569 9.70334 21.77 9.76795C21.2406 10.1589 20.7564 10.482 20.7124 10.5043C18.8854 11.7296 16.7625 12.5917 14.5009 13.0206C14.3534 13.0496 14.2081 12.9727 14.1333 12.8413C13.4993 11.7429 12.3152 11.0278 10.9945 11.0278C9.68264 11.0278 8.48744 11.7351 7.83482 12.8346C7.75888 12.9638 7.61581 13.0384 7.46943 13.0106C5.22651 12.5806 3.10355 11.7195 1.28764 10.5154L0.231116 9.7802C0.143072 9.72451 0.088044 9.62426 0.088044 9.51286C0.0550275 8.94477 0 7.11794 0 7.11794C0 4.77871 1.88194 2.87391 4.1931 2.87391H6.36118C6.57029 1.25873 7.92396 0 9.57479 0H12.4142ZM12.4142 1.67088H9.57479C8.83742 1.67088 8.2101 2.18328 8.03402 2.87391H13.955C13.7789 2.18328 13.1516 1.67088 12.4142 1.67088Z" fill="white"/>
</svg>
